<?xml version="1.0" encoding="utf-8"?>
<!-- Generator: Adobe Illustrator 25.0.0, SVG Export Plug-In . SVG Version: 6.00 Build 0)  -->
<svg version="1.1" id="Layer_1" xmlns="http://www.w3.org/2000/svg" xmlns:xlink="http://www.w3.org/1999/xlink" x="0px" y="0px"
	 viewBox="0 0 1080 1920" style="enable-background:new 0 0 1080 1920;" xml:space="preserve">
<style type="text/css">
	.st0{clip-path:url(#SVGID_2_);}
	.st1{fill:none;stroke:#708FA0;stroke-width:8;stroke-linecap:round;stroke-miterlimit:10;}
	.st2{fill:#FFFFFF;}
	.st3{fill:none;stroke:#B3B3B3;stroke-width:8;stroke-miterlimit:10;}
	.st4{fill:none;stroke:#260129;stroke-width:8;stroke-linecap:round;}
	.st5{enable-background:new    ;}
	.st6{fill:#260129;}
	.st7{fill:#c23ac0;}
	.st8{font-family:'ArialMT';}
	.st9{font-size:39px;}
	.st10{clip-path:url(#SVGID_4_);}
	.st11{opacity:0.5;fill:none;stroke:#DBDBDB;stroke-width:2;stroke-linecap:round;enable-background:new    ;}
	.st12{fill:none;stroke:#c23ac0;stroke-width:6;stroke-linecap:round;stroke-linejoin:round;}
	.st13{fill:#c23ac0;stroke:#c23ac0;stroke-width:6;stroke-linecap:round;stroke-linejoin:round;}
	.st14{fill:none;stroke:#c23ac0;stroke-width:6;stroke-linecap:round;stroke-linejoin:round;stroke-dasharray:12;}
	.st15{fill:none;stroke:#c23ac0;stroke-width:7.0016;stroke-miterlimit:10.0024;}
	.st16{fill:none;stroke:#c23ac0;stroke-width:6.0014;stroke-linecap:round;stroke-linejoin:round;stroke-miterlimit:4.001;}
	.st17{fill:#c23ac0;}
	.st18{fill:none;stroke:#c23ac0;stroke-width:6.0014;stroke-linecap:round;stroke-miterlimit:4.001;}
	.st19{fill:none;stroke:#c23ac0;stroke-width:6;stroke-miterlimit:10;}
	.st20{fill:none;stroke:#c23ac0;stroke-width:6.0002;stroke-miterlimit:10.0004;}
	.st21{fill:#223D6D;stroke:#000000;stroke-width:0.6409;stroke-miterlimit:10;}
	.st22{fill:#516FA5;stroke:#000000;stroke-width:0.6409;stroke-miterlimit:10;}
	.st23{fill:#678FBF;stroke:#000000;stroke-width:0.6409;stroke-miterlimit:10;}
	.st24{fill:#4C5660;stroke:#000000;stroke-width:0.6409;stroke-miterlimit:10;}
</style>
<g>
	<g>
		<defs>
			<rect id="SVGID_1_" y="0" width="1080" height="1920"/>
		</defs>
		<clipPath id="SVGID_2_">
			<use xlink:href="#SVGID_1_"  style="overflow:visible;"/>
		</clipPath>
		<g id="beforeExam_popup" class="st0">
			<rect id="Rectangle_72" y="0" width="1080" height="1920"/>
			<g id="Group_487">
				<g id="Group_303" transform="translate(156.707 209.766)">
					<line id="Line_103" class="st1" x1="143.6" y1="38.4" x2="151.3" y2="69.3"/>
					<path id="Path_459" class="st1" d="M150.3,65.3l1.8,7.3c1.3,5.1-1.8,10.3-6.9,11.6l0,0l0,0c-5.1,1.3-10.3-1.8-11.6-6.9
						l-1.8-7.3l-9-36.1"/>
					<path id="Rectangle_27" class="st2" d="M37.3,48.9h692.6c20.6,0,37.3,16.7,37.3,37.3v1286.4c0,20.6-16.7,37.3-37.3,37.3H37.3
						c-20.6,0-37.3-16.7-37.3-37.3V86.2C0,65.6,16.7,48.9,37.3,48.9z"/>
					<path id="Path_460" class="st3" d="M158.9,0"/>
					<g id="Group_302" transform="translate(103.578 0.076)">
						<path id="Path_461" class="st1" d="M14.9,78.8L0.5,21.2C-1.8,12.1,3.8,2.8,12.9,0.5l0,0l0,0C22-1.8,31.3,3.8,33.6,12.9l0,0
							L40,38.3"/>
						<path id="Path_462" class="st1" d="M6.2,43.9L19.7,98c3.2,12.9,16.3,20.7,29.1,17.5l0,0c12.9-3.2,20.7-16.3,17.5-29.1L60,62"
							/>
					</g>
				</g>
				<g id="Group_470" transform="translate(6 -159)">
					<g id="Group_440" transform="translate(635.21 575.488)">
						<g id="Group_372" transform="translate(210.043 -107.993) rotate(45)">
							<path id="Path_490" class="st4" d="M42.2,16.8H0"/>
						</g>
						<g id="Group_468" transform="translate(210.043 -107.993) rotate(45)">
							<path id="Path_490-2" class="st4" d="M42.2,16.8H0"/>
						</g>
					</g>
					<g id="Group_469" transform="translate(767.078 281.188) rotate(90)">
						<g id="Group_372-2" transform="translate(210.043 -107.993) rotate(45)">
							<path id="Path_490-3" class="st4" d="M42.2,16.8H0"/>
						</g>
						<g id="Group_468-2" transform="translate(210.043 -107.993) rotate(45)">
							<path id="Path_490-4" class="st4" d="M42.2,16.8H0"/>
						</g>
					</g>
				</g>
				<g class="st5">
					<path class="st6" d="M342.1,435h-34.8v-36.6c4.5-0.8,9.1-1.2,13.7-1.2c5.9,0,10.3,0.7,13.2,2.2c2.9,1.5,4.9,3.4,6.1,5.8
						s1.8,5.6,1.8,9.6L342.1,435L342.1,435z M332.2,426.5v-11.1c0-3.3-0.7-5.7-2.1-7.4c-1.4-1.7-4.1-2.5-7.9-2.5
						c-2,0-3.7,0.1-5.1,0.4v20.6H332.2z"/>
					<path class="st6" d="M361.4,397.7v20.8h-10.2v-20.8H361.4z"/>
					<path class="st6" d="M398.1,397.7v9.6c0,3.5-0.2,6.1-0.5,7.7s-0.9,3.2-1.9,4.6l-1.6,2.3c-1,1.5-1.7,2.6-2,3.5s-0.5,2-0.5,3.4
						v6.2h-9.8v-6.7c0-1.9,0.3-3.6,0.8-4.9s1.5-3,3-5.1l0.9-1.3c1.2-1.7,1.8-3.7,1.8-6.2v-4.7h-19.9v-22.7h9.8v14.2h19.9V397.7z"/>
					<path class="st6" d="M416.7,397.7v20.8h-10.2v-20.8H416.7z"/>
					<path class="st6" d="M461.1,435h-9.8v-19.6c0-3.3-0.7-5.7-2.1-7.4c-1.4-1.7-4.1-2.5-7.9-2.5c-2,0-3.7,0.1-5.1,0.4V435h-9.9
						v-36.6c4.5-0.8,9.1-1.2,13.7-1.2c5.9,0,10.3,0.7,13.2,2.2c2.9,1.5,4.9,3.4,6.1,5.8s1.8,5.6,1.8,9.6L461.1,435L461.1,435z"/>
					<path class="st6" d="M468.9,427.6c1.4,0.5,2.7,0.7,3.8,0.7c1.4,0,2.3-0.3,2.8-1c0.4-0.7,0.7-2,0.7-3.9v-17.9
						c-1.6,0-4.1,0.2-7.5,0.6l-0.8-7.6c6-0.8,12.3-1.2,18.8-1.2c5.5,0,9.9,0.5,13.1,1.4c3.2,1,5.6,2.7,7.3,5.3
						c1.6,2.6,2.4,6.2,2.4,10.9V435h-9.9v-18.4c0-4.7-0.8-7.8-2.4-9.3s-5.3-2.2-11.3-2.2v18.7c0,3.2-0.2,5.4-0.7,6.8s-1.5,2.5-3,3.4
						s-3.6,1.3-6.4,1.3c-3,0-5.9-0.4-8.6-1.3L468.9,427.6z"/>
					<path class="st6" d="M527.4,405.7c3.7-5.6,8.2-8.4,13.5-8.4c4.4,0,7.9,1.8,10.5,5.3s3.9,9.2,3.9,17V435h-19v-8.5h9.1V419
						c0-4.9-0.4-8.3-1.2-10.3s-2.3-2.9-4.3-2.9c-2.2,0-3.9,1.2-5.3,3.5s-2.7,6.7-3.9,13.1l-2.3,12.6H518l1.7-8.1
						c1-4.8,2-8.3,2.8-10.6l-6.3-18.6h8.9L527.4,405.7z"/>
					<path class="st6" d="M574.5,421.8c0.5,1.9,1.7,3.5,3.6,4.8s4.1,2,6.5,2c4,0,7.1-1.2,9.1-3.6s3.4-7,3.9-13.6l1-13.7h9.7
						l-1.2,14.3c-0.5,6-1.5,10.5-2.9,13.4s-3.7,5.4-7,7.5s-7.4,3.2-12.5,3.2c-6.6,0-11.8-2.1-15.7-6.4s-5.8-10.7-5.8-19.3l-0.4-12.6
						h9.8l0.1,9.9c0,1.3,0.1,3.2,0.3,5.7c0.1,1.1,0.1,1.8,0.1,2.3c1.6,0,3-0.4,4.2-1.2s2-1.8,2.4-3.1s0.6-3.6,0.8-6.9l0.4-6.6h9.6
						l-0.5,9.2c-0.1,2.4-0.4,4.3-0.7,5.6s-1,2.7-2,4s-2.5,2.5-4.6,3.4S577.8,421.5,574.5,421.8z"/>
					<path class="st6" d="M646,397.7v20.8h-10.2v-20.8H646z"/>
					<path class="st6" d="M674.1,435h-20.2v-8.5h10.4v-14c0-2.8-0.6-4.7-1.9-5.7s-3.1-1.5-5.3-1.5c-1.4,0-2.3,0.1-2.9,0.2l-0.7-7.6
						c1.8-0.4,4.2-0.6,7-0.6c4.7,0,8.2,1.1,10.4,3.4s3.3,6,3.3,11L674.1,435L674.1,435z"/>
					<path class="st6" d="M683,398.9c4.4-1.2,8.9-1.8,13.5-1.8c6.5,0,11.7,1.7,15.6,5.2s5.8,7.9,5.8,13.3c0,6.4-2.1,11.3-6.3,14.8
						s-9.7,5.2-16.6,5.2c-4.3,0-8.6-0.8-13-2.4l1.9-6.6c3.6,1.4,6.9,2,10.2,2c4.1,0,7.4-1.1,9.8-3.2s3.7-5.3,3.7-9.4
						c0-3.8-1-6.8-3-9s-4.8-3.3-8.4-3.3c-1.3,0-2.6,0.1-4,0.4v4.3c0,3.4,1.4,5.1,4.1,5.1c0.4,0,0.8,0,1.3-0.1l1.7,6.1
						c-1.7,0.7-3.5,1.1-5.4,1.1c-1.8,0-3.5-0.3-5.2-1s-3-1.8-4.1-3.5s-1.7-4.5-1.7-8.6v-8.6H683z"/>
					<path class="st6" d="M752.8,397.7v9.6c0,3.5-0.2,6.1-0.5,7.7s-0.9,3.2-1.9,4.6l-1.6,2.3c-1,1.5-1.7,2.6-2,3.5s-0.5,2-0.5,3.4
						v6.2h-9.8v-6.7c0-1.9,0.3-3.6,0.8-4.9s1.5-3,3-5.1l0.9-1.3c1.2-1.7,1.8-3.7,1.8-6.2v-4.7h-19.9v-22.7h9.8v14.2h19.9V397.7z"/>
				</g>
				<g id="Group_451" transform="translate(0 90.349)">
					<path id="Rectangle_19" class="st7" d="M427.2,1329.7h225.2c12.7,0,23,10.3,23,23v51.9c0,12.7-10.3,23-23,23H427.2
						c-12.7,0-23-10.3-23-23v-51.9C404.2,1340,414.5,1329.7,427.2,1329.7z"/>
					<g class="st5">
						<path class="st2" d="M490.7,1371.2v12.7h-6.2v-12.7H490.7z"/>
						<path class="st2" d="M495.5,1389.5c0.9,0.3,1.7,0.4,2.3,0.4c0.9,0,1.4-0.2,1.7-0.6c0.3-0.4,0.4-1.2,0.4-2.4V1376
							c-1,0-2.5,0.1-4.6,0.4l-0.5-4.7c3.7-0.5,7.5-0.7,11.5-0.7c3.4,0,6,0.3,8,0.9s3.4,1.7,4.4,3.2c1,1.6,1.5,3.8,1.5,6.6v12.3h-6
							v-11.2c0-2.9-0.5-4.8-1.4-5.7c-1-0.9-3.3-1.4-6.9-1.4v11.4c0,1.9-0.1,3.3-0.4,4.2c-0.3,0.8-0.9,1.5-1.8,2.1
							c-0.9,0.5-2.2,0.8-3.9,0.8c-1.8,0-3.6-0.3-5.2-0.8L495.5,1389.5z"/>
						<path class="st2" d="M537.5,1394h-12.4v-5.2h6.3v-8.5c0-1.7-0.4-2.9-1.2-3.5s-1.9-0.9-3.3-0.9c-0.8,0-1.4,0-1.8,0.1l-0.5-4.7
							c1.1-0.3,2.5-0.4,4.3-0.4c2.9,0,5,0.7,6.4,2.1s2,3.6,2,6.7v14.3H537.5z"/>
						<path class="st2" d="M560.4,1388.8h4.1v5.2h-22.7v-5.2h12.5v-6c0-2.5-0.5-4.3-1.6-5.3s-2.9-1.5-5.5-1.5
							c-1.5,0-3.3,0.2-5.2,0.5l-0.5-4.7c2.2-0.5,4.5-0.7,6.7-0.7c4.2,0,7.2,0.9,9.2,2.6s2.9,4.4,2.9,8.2L560.4,1388.8L560.4,1388.8z
							"/>
						<path class="st2" d="M589.8,1394h-6v-10.7c0-2.8-0.7-4.7-2.1-5.8c-1.4-1.1-3.5-1.6-6.2-1.6c-2.1,0-4.3,0.2-6.8,0.5l-0.4-4.8
							c2.3-0.4,5.1-0.6,8.3-0.6c3.5,0,6.1,0.5,8,1.5s3.2,2.2,4,3.7s1.2,3.6,1.2,6.2V1394z M574.6,1382.2v11.8h-6v-11.8H574.6z"/>
					</g>
				</g>
				<g id="Group_487-2" transform="translate(32)">
					<g class="st5">
						<path class="st6" d="M451.2,577h-17.6v-19.8c2.7-0.4,5.2-0.7,7.5-0.7c2.5,0,4.5,0.4,6,1.1c1.5,0.7,2.6,1.7,3.2,2.9
							s0.9,2.9,0.9,5.1V577z M447.6,573.9V566c0-1.5-0.2-2.7-0.5-3.5s-1-1.5-2-2s-2.4-0.8-4.3-0.8c-1.1,0-2.3,0.1-3.6,0.3v14
							L447.6,573.9L447.6,573.9z"/>
						<path class="st6" d="M455.5,576.7l0.5-3.3c1.2,0.4,2.4,0.6,3.7,0.6c1.4,0,2.6-0.3,3.6-0.9c1-0.6,1.7-1.4,2.3-2.5
							s0.8-2.3,0.8-3.7c0-2.1-0.6-3.8-1.7-5.2c-1.1-1.3-2.8-2-4.9-2c-1.3,0-2.5,0.2-3.7,0.6l-0.5-3.3c1.5-0.4,2.8-0.6,4-0.6
							c3.4,0,6,1,7.9,3s2.8,4.5,2.8,7.5c0,2-0.4,3.7-1.2,5.3c-0.8,1.5-2,2.8-3.6,3.7c-1.6,1-3.5,1.4-6,1.4
							C458.3,577.3,457,577.1,455.5,576.7z"/>
						<path class="st6" d="M472.7,576.5l0.6-2.7c0.7,0.2,1.4,0.3,2.2,0.3c0.9,0,1.5-0.2,1.8-0.6c0.3-0.4,0.5-1.1,0.5-2.1v-11.7
							c-1.1,0-2.4,0.1-4,0.3l-0.3-3c2.9-0.4,5.8-0.6,8.8-0.6s5.3,0.3,7,0.8c1.6,0.5,2.9,1.4,3.7,2.8c0.9,1.4,1.3,3.3,1.3,6v11h-3.6
							v-10c0-2-0.1-3.4-0.4-4.3c-0.3-0.9-0.9-1.7-2-2.2s-2.7-0.9-5-0.9h-1.8v12.2c0,1.3-0.1,2.2-0.4,2.9c-0.2,0.7-0.7,1.2-1.5,1.7
							c-0.7,0.4-1.9,0.6-3.3,0.6C475.1,577.1,473.9,576.9,472.7,576.5z"/>
						<path class="st6" d="M503.7,556.8V577H500v-20.2H503.7z"/>
						<path class="st6" d="M512.2,556.8l0.1,3.3c0.1,3.4,0.2,5.7,0.4,7c1.3,0,2.6-0.3,3.6-1s1.6-1.9,1.6-3.8l0.4-5.4h3.7l-0.5,6.4
							c-0.1,1.1-0.2,1.9-0.4,2.5s-0.5,1.1-1,1.8c-0.5,0.6-1.3,1.2-2.4,1.6c-1.1,0.5-2.6,0.8-4.5,0.9c0.3,1.4,1.1,2.5,2.2,3.3
							s2.6,1.2,4.3,1.2c1.6,0,2.9-0.4,4-1.1c1.1-0.7,1.9-1.7,2.5-2.9c0.5-1.2,0.9-2.8,1.1-5l0.8-8.7h3.7l-0.7,7.5
							c-0.3,2.8-0.7,5.1-1.4,7s-1.9,3.4-3.6,4.5c-1.7,1.2-3.9,1.7-6.6,1.7c-2.4,0-4.4-0.6-6-1.7c-1.6-1.1-2.8-2.8-3.6-4.9
							c-0.8-2.1-1.2-5-1.2-8.5l-0.3-5.6L512.2,556.8L512.2,556.8z"/>
						<path class="st6" d="M534.5,557c2-0.3,3.8-0.4,5.4-0.4c4.1,0,6.9,0.8,8.5,2.4c1.6,1.6,2.4,4,2.4,7.2V577h-3.6v-10
							c0-1.8-0.2-3.2-0.6-4.2c-0.4-0.9-1.1-1.7-2.3-2.3c-1.1-0.6-2.7-0.9-4.7-0.9c-1.4,0-3,0.1-4.9,0.4L534.5,557z"/>
						<path class="st6" d="M570.6,573.9h3.2v3h-19.3v-3H567V567c0-1.9-0.2-3.3-0.6-4.2c-0.4-0.9-1.2-1.7-2.3-2.3s-2.8-0.8-5.1-0.8
							c-0.8,0-2.1,0.1-3.8,0.3l-0.3-3c1.7-0.3,3.5-0.4,5.5-0.4c3.6,0,6.3,0.8,7.9,2.4c1.6,1.6,2.4,4,2.4,7.2v7.7H570.6z"/>
						<path class="st6" d="M592.2,556.8v10.5h-3.7v-10.5H592.2z"/>
						<path class="st6" d="M596.7,576.7l0.5-3.3c1.2,0.4,2.4,0.6,3.7,0.6c1.4,0,2.6-0.3,3.6-0.9c1-0.6,1.7-1.4,2.3-2.5
							c0.5-1.1,0.8-2.3,0.8-3.7c0-2.1-0.6-3.8-1.7-5.2c-1.1-1.3-2.8-2-4.9-2c-1.3,0-2.5,0.2-3.7,0.6l-0.5-3.3c1.5-0.4,2.8-0.6,4-0.6
							c3.4,0,6,1,7.9,3s2.8,4.5,2.8,7.5c0,2-0.4,3.7-1.2,5.3c-0.8,1.5-2,2.8-3.6,3.7c-1.6,1-3.5,1.4-6,1.4
							C599.5,577.3,598.2,577.1,596.7,576.7z"/>
						<path class="st6" d="M630.6,556.8V577h-3.7v-20.2H630.6z"/>
						<path class="st6" d="M654.5,577H650l-7.7-10.9c-1.2,0.6-1.9,2-2.1,3.9l-0.8,7h-3.8l0.8-7c0.4-3.3,1.7-5.4,4-6.6l-4.7-6.6h4.5
							l6.5,9c0.8-0.5,1.3-1.1,1.6-1.8s0.6-1.7,0.7-3.2l0.5-4.1h3.8l-0.5,4.2c-0.2,1.8-0.6,3.3-1.2,4.4c-0.6,1.1-1.6,2.2-3.1,3.1
							L654.5,577z"/>
						<path class="st6" d="M674.5,559.8h-3.4V577h-3.6v-17.2h-11v-3h18.1L674.5,559.8L674.5,559.8z"/>
						<path class="st6" d="M682,556.8V577h-3.7v-20.2H682z"/>
						<path class="st6" d="M691.7,556.8V577H688v-20.2H691.7z"/>
						<path class="st6" d="M726.3,577h-4.5l-7.7-10.9c-1.2,0.6-1.9,2-2.1,3.9l-0.8,7h-3.8l0.8-7c0.4-3.3,1.7-5.4,4-6.6l-4.7-6.6h4.5
							l6.5,9c0.8-0.5,1.3-1.1,1.6-1.8s0.6-1.7,0.7-3.2l0.5-4.1h3.8l-0.5,4.2c-0.2,1.8-0.6,3.3-1.2,4.4c-0.6,1.1-1.6,2.2-3.1,3.1
							L726.3,577z"/>
						<path class="st6" d="M738.3,577h-9.8v-3h6.1v-10c0-1.1-0.1-1.9-0.2-2.5c-0.2-0.6-0.5-1-1.1-1.4c-0.5-0.3-1.3-0.5-2.2-0.5
							c-0.8,0-1.5,0.1-2.1,0.2l-0.3-2.9c0.9-0.3,1.9-0.4,3.1-0.4c1.7,0,3,0.3,4,1s1.5,1.4,1.9,2.4c0.3,0.9,0.5,2.3,0.5,4L738.3,577
							L738.3,577z"/>
						<path class="st6" d="M762.1,577h-4.5l-7.7-10.9c-1.2,0.6-1.9,2-2.1,3.9l-0.8,7h-3.8l0.8-7c0.4-3.3,1.7-5.4,4-6.6l-4.7-6.6h4.5
							l6.5,9c0.8-0.5,1.3-1.1,1.6-1.8s0.6-1.7,0.7-3.2l0.5-4.1h3.8l-0.5,4.2c-0.2,1.8-0.6,3.3-1.2,4.4c-0.6,1.1-1.6,2.2-3.1,3.1
							L762.1,577z"/>
					</g>
					<g class="st5">
						<path class="st6" d="M561.2,603.9c2.3-0.4,4.5-0.6,6.7-0.6c4.2,0,7.1,0.8,8.7,2.3s2.4,4,2.4,7.2v10.9h-3.6v-9.9
							c0-2-0.2-3.5-0.7-4.4s-1.3-1.7-2.4-2.2c-1.1-0.5-2.8-0.7-5-0.7c-1.7,0-3.6,0.2-5.8,0.5L561.2,603.9z M565,612.4v11.4h-3.6
							v-11.4H565z"/>
						<path class="st6" d="M582.6,603.8c2-0.3,3.8-0.4,5.4-0.4c4.1,0,6.9,0.8,8.5,2.4c1.6,1.6,2.4,4,2.4,7.2v10.9h-3.6V614
							c0-1.8-0.2-3.2-0.6-4.2c-0.4-0.9-1.1-1.7-2.3-2.3c-1.1-0.6-2.7-0.9-4.7-0.9c-1.4,0-3,0.1-4.9,0.4L582.6,603.8z"/>
						<path class="st6" d="M608.3,603.6V614h-3.7v-10.5L608.3,603.6L608.3,603.6z"/>
						<path class="st6" d="M628.3,620.7h3.2v3h-19.3v-3h12.5v-6.9c0-1.9-0.2-3.3-0.6-4.2c-0.4-0.9-1.2-1.7-2.3-2.3s-2.8-0.8-5.1-0.8
							c-0.8,0-2.1,0.1-3.8,0.3l-0.3-3c1.7-0.3,3.5-0.4,5.5-0.4c3.6,0,6.3,0.8,7.9,2.4c1.6,1.6,2.4,4,2.4,7.2v7.7H628.3z"/>
						<path class="st6" d="M634.1,613.8c0-3.2,0.9-5.8,2.6-7.8c1.7-2,4-3,6.9-3c1.7,0,3.2,0.4,4.6,1.1c1.4,0.7,2.5,1.9,3.5,3.6
							c0.9,1.6,1.4,3.7,1.4,6.1c0,2-0.4,3.8-1.1,5.4c-0.7,1.6-1.8,2.8-3.2,3.8s-3.2,1.4-5.2,1.4c-2.9,0-5.2-1-6.9-2.9
							C635,619.5,634.1,617,634.1,613.8z M638.1,613.8c0,2.4,0.5,4.2,1.4,5.6c1,1.3,2.3,2,4.1,2c1.9,0,3.3-0.7,4.2-2.2
							c0.9-1.4,1.4-3.3,1.4-5.4c0-2.4-0.5-4.3-1.5-5.7s-2.3-2-4.1-2s-3.2,0.7-4.1,2.2C638.6,609.7,638.1,611.5,638.1,613.8z"/>
						<path class="st6" d="M668.5,603.9c2.3-0.4,4.5-0.6,6.7-0.6c4.2,0,7.1,0.8,8.7,2.3s2.4,4,2.4,7.2v10.9h-3.6v-9.9
							c0-2-0.2-3.5-0.7-4.4s-1.3-1.7-2.4-2.2c-1.1-0.5-2.8-0.7-5-0.7c-1.7,0-3.6,0.2-5.8,0.5L668.5,603.9z M672.4,612.4v11.4h-3.6
							v-11.4H672.4z"/>
						<path class="st6" d="M691.8,603.6h3.6v10.5c0,3,0.5,5,1.6,5.9c1.1,1,2.3,1.4,3.7,1.4s2.6-0.3,3.4-1c0.8-0.7,1.4-1.5,1.6-2.6
							s0.4-2.5,0.4-4.4v-2.6c0-3-0.9-4.4-2.6-4.4c-1.2,0-2.3,0.7-3.3,2l-1.1-1.9c1.4-2.3,3.1-3.4,5.2-3.4c1.8,0,3.1,0.7,4,2.1
							c0.9,1.4,1.4,3.4,1.4,6.1v1.4c0,2.6-0.3,4.7-0.8,6.1c-0.5,1.5-1.5,2.7-2.9,3.8s-3.2,1.6-5.5,1.6c-2,0-3.7-0.5-5.1-1.4
							c-1.4-1-2.4-2.2-3-3.7s-0.9-3.5-0.9-6.2v-9.3H691.8z"/>
						<path class="st6" d="M718.8,603.6V614h-3.7v-10.5L718.8,603.6L718.8,603.6z"/>
						<path class="st6" d="M726.5,603.6h11.2v5c0,1.4-0.1,2.6-0.4,3.5c-0.3,0.9-0.7,1.8-1.4,2.7l-1,1.4c-1,1.4-1.5,2.9-1.5,4.4v3.2
							h-3.6v-2.7c0-1.6,0.2-2.9,0.5-3.7s0.8-1.6,1.4-2.4l1.1-1.4c0.6-0.7,0.9-1.4,1.1-1.9c0.2-0.6,0.2-1.3,0.2-2.2v-2.7h-11.2V596
							h3.6L726.5,603.6L726.5,603.6z"/>
						<path class="st6" d="M742.7,603.6h16.5v5c0,1.4-0.1,2.6-0.4,3.5c-0.3,0.9-0.7,1.8-1.4,2.7l-1,1.4c-1,1.4-1.6,2.9-1.6,4.4v3.2
							h-3.6v-2.7c0-1.4,0.1-2.5,0.4-3.4c0.2-0.9,0.8-1.8,1.6-2.8l1.1-1.4c0.5-0.7,0.9-1.3,1.1-1.9c0.2-0.6,0.3-1.3,0.3-2.2v-2.7
							h-12.9L742.7,603.6L742.7,603.6z M743,631.5v-19.2h3.5v19.2H743z"/>
					</g>
				</g>
				<g id="Group_488" transform="translate(32)">
					<g class="st5">
						<path class="st6" d="M463,738.8v28h-3.7v-28H463z"/>
						<path class="st6" d="M486.6,759H483v-11c0-1.5-0.2-2.7-0.5-3.5s-1-1.5-2-2s-2.4-0.8-4.3-0.8c-1.1,0-2.3,0.1-3.6,0.3v17H469
							v-19.8c2.7-0.4,5.2-0.7,7.5-0.7c2.5,0,4.5,0.4,6,1.1c1.5,0.7,2.6,1.7,3.2,2.9s0.9,2.9,0.9,5.1V759z"/>
						<path class="st6" d="M506.4,755.9h3.2v3h-19.3v-3h12.5V749c0-1.9-0.2-3.3-0.6-4.2s-1.2-1.7-2.3-2.3c-1.1-0.6-2.8-0.8-5.1-0.8
							c-0.8,0-2.1,0.1-3.8,0.3l-0.3-3c1.7-0.3,3.5-0.4,5.5-0.4c3.6,0,6.3,0.8,7.9,2.4c1.6,1.6,2.4,4,2.4,7.2v7.7H506.4z"/>
						<path class="st6" d="M515.1,747.2l-3.1-8.4h3.6l1.5,4.5c0.6-1.3,1.5-2.4,2.8-3.3c1.3-0.9,2.6-1.4,4.1-1.4s2.9,0.4,4,1.2
							s1.9,2,2.4,3.5s0.8,3.8,0.8,6.9v8.9h-10.4v-3h6.7V750c0-2.2-0.1-3.9-0.2-4.9c-0.1-1-0.5-1.9-1.1-2.5s-1.4-1-2.3-1
							c-1.4,0-2.6,0.7-3.6,2.2s-1.8,4-2.5,7.6l-1.4,7.5h-3.7l1.6-7.9C514.3,750.3,514.6,749.1,515.1,747.2z"/>
						<path class="st6" d="M536.8,739.1c2.3-0.4,4.5-0.6,6.7-0.6c4.2,0,7.1,0.8,8.7,2.3s2.4,4,2.4,7.2v11H551v-10
							c0-2-0.2-3.5-0.7-4.4s-1.3-1.7-2.4-2.2c-1.1-0.5-2.8-0.7-5-0.7c-1.7,0-3.6,0.2-5.8,0.5L536.8,739.1z M540.6,747.6V759H537
							v-11.4H540.6z"/>
						<path class="st6" d="M574.9,738.8v28h-3.7v-28H574.9z"/>
						<path class="st6" d="M582.5,747.2l-3.1-8.4h3.6l1.5,4.5c0.6-1.3,1.5-2.4,2.8-3.3c1.3-0.9,2.6-1.4,4.1-1.4s2.9,0.4,4,1.2
							s1.9,2,2.4,3.5s0.8,3.8,0.8,6.9v8.9h-10.4v-3h6.7V750c0-2.2-0.1-3.9-0.2-4.9c-0.1-1-0.5-1.9-1.1-2.5s-1.4-1-2.3-1
							c-1.4,0-2.6,0.7-3.6,2.2s-1.8,4-2.5,7.6l-1.4,7.5H580l1.6-7.9C581.7,750.3,582,749.1,582.5,747.2z"/>
						<path class="st6" d="M615.3,741.3c-1.9,0-3.5,0.6-4.6,1.7c-1.1,1.1-1.6,2.6-1.6,4.5c0,0.4,0.1,1.1,0.2,2.2
							c0.3,3.1,0.5,5.3,0.5,6.6v2.8h-3.7v-3.3c0-1.3-0.1-3.4-0.4-6.2c-0.1-0.9-0.1-1.7-0.1-2.3c0-2.1,0.9-3.9,2.6-5.3h-5.1v-3h12.2
							L615.3,741.3L615.3,741.3z"/>
						<path class="st6" d="M621.8,738.8l0.1,3.3c0.1,3.4,0.2,5.7,0.4,7c1.3,0,2.6-0.3,3.6-1s1.6-1.9,1.6-3.8l0.4-5.4h3.7l-0.5,6.4
							c-0.1,1.1-0.2,1.9-0.4,2.5s-0.5,1.1-1,1.8c-0.5,0.6-1.3,1.2-2.4,1.6c-1.1,0.5-2.6,0.8-4.5,0.9c0.3,1.4,1.1,2.5,2.2,3.3
							s2.6,1.2,4.3,1.2c1.6,0,2.9-0.4,4-1.1c1.1-0.7,1.9-1.7,2.5-2.9c0.5-1.2,0.9-2.8,1.1-5l0.8-8.7h3.7l-0.7,7.5
							c-0.3,2.8-0.7,5.1-1.4,7s-1.9,3.4-3.6,4.5c-1.7,1.2-3.9,1.7-6.6,1.7c-2.4,0-4.4-0.6-6-1.7c-1.6-1.1-2.8-2.8-3.6-4.9
							c-0.8-2.1-1.2-5-1.2-8.5l-0.3-5.6L621.8,738.8L621.8,738.8z"/>
						<path class="st6" d="M671.2,755.9h3.2v3h-19.3v-3h12.5V749c0-1.9-0.2-3.3-0.6-4.2c-0.4-0.9-1.2-1.7-2.3-2.3s-2.8-0.8-5.1-0.8
							c-0.8,0-2.1,0.1-3.8,0.3l-0.3-3c1.7-0.3,3.5-0.4,5.5-0.4c3.6,0,6.3,0.8,7.9,2.4c1.6,1.6,2.4,4,2.4,7.2v7.7H671.2z"/>
						<path class="st6" d="M680,738.8h11.2v5c0,1.4-0.1,2.6-0.4,3.5c-0.3,0.9-0.7,1.8-1.4,2.7l-1,1.4c-1,1.4-1.5,2.9-1.5,4.4v3.2
							h-3.6v-2.7c0-1.6,0.2-2.9,0.5-3.7s0.8-1.6,1.4-2.4l1.1-1.4c0.6-0.7,0.9-1.4,1.1-1.9c0.2-0.6,0.2-1.3,0.2-2.2V742h-11.2v-10.8
							h3.6L680,738.8L680,738.8z"/>
						<path class="st6" d="M710.8,738.8V759h-3.7v-20.2H710.8z"/>
						<path class="st6" d="M718.4,747.2l-3.1-8.4h3.6l1.5,4.5c0.6-1.3,1.5-2.4,2.8-3.3c1.3-0.9,2.6-1.4,4.1-1.4s2.9,0.4,4,1.2
							s1.9,2,2.4,3.5s0.8,3.8,0.8,6.9v8.9H724v-3h6.7V750c0-2.2-0.1-3.9-0.2-4.9c-0.1-1-0.5-1.9-1.1-2.5s-1.4-1-2.3-1
							c-1.4,0-2.6,0.7-3.6,2.2s-1.8,4-2.5,7.6l-1.4,7.5h-3.7l1.6-7.9C717.6,750.3,717.9,749.1,718.4,747.2z"/>
						<path class="st6" d="M743.9,738.8v10.5h-3.7v-10.5H743.9z"/>
						<path class="st6" d="M752.4,738.8l0.1,3.3c0.1,3.4,0.2,5.7,0.4,7c1.3,0,2.6-0.3,3.6-1s1.6-1.9,1.6-3.8l0.4-5.4h3.7l-0.5,6.4
							c-0.1,1.1-0.2,1.9-0.4,2.5s-0.5,1.1-1,1.8c-0.5,0.6-1.3,1.2-2.4,1.6c-1.1,0.5-2.6,0.8-4.5,0.9c0.3,1.4,1.1,2.5,2.2,3.3
							s2.6,1.2,4.3,1.2c1.6,0,2.9-0.4,4-1.1c1.1-0.7,1.9-1.7,2.5-2.9c0.5-1.2,0.9-2.8,1.1-5l0.8-8.7h3.7l-0.7,7.5
							c-0.3,2.8-0.7,5.1-1.4,7s-1.9,3.4-3.6,4.5c-1.7,1.2-3.9,1.7-6.6,1.7c-2.4,0-4.4-0.6-6-1.7c-1.6-1.1-2.8-2.8-3.6-4.9
							c-0.8-2.1-1.2-5-1.2-8.5l-0.3-5.6L752.4,738.8L752.4,738.8z"/>
					</g>
					<g class="st5">
						<path class="st6" d="M489.8,805.3l0.6-2.7c0.7,0.2,1.4,0.3,2.2,0.3c0.9,0,1.5-0.2,1.8-0.6c0.3-0.4,0.5-1.1,0.5-2.1v-11.7
							c-1.1,0-2.4,0.1-4,0.3l-0.3-3c2.9-0.4,5.8-0.6,8.8-0.6s5.3,0.3,7,0.8c1.6,0.5,2.9,1.4,3.7,2.8c0.9,1.4,1.3,3.3,1.3,6v10.9
							h-3.6v-9.9c0-2-0.1-3.4-0.4-4.3c-0.3-0.9-0.9-1.7-2-2.2s-2.7-0.9-5-0.9h-1.8v12.2c0,1.3-0.1,2.2-0.4,2.9
							c-0.2,0.7-0.7,1.2-1.5,1.7c-0.7,0.4-1.9,0.6-3.3,0.6C492.2,805.9,491,805.7,489.8,805.3z"/>
						<path class="st6" d="M520.8,785.6v20.2h-3.7v-20.2H520.8z"/>
						<path class="st6" d="M526.6,785.6h16.5v5c0,1.4-0.1,2.6-0.4,3.5c-0.3,0.9-0.7,1.8-1.4,2.7l-1,1.4c-1,1.4-1.6,2.9-1.6,4.4v3.2
							h-3.6v-2.7c0-1.4,0.1-2.5,0.4-3.4c0.2-0.9,0.8-1.8,1.6-2.8l1.1-1.4c0.5-0.7,0.9-1.3,1.1-1.9c0.2-0.6,0.3-1.3,0.3-2.2v-2.7
							h-12.9L526.6,785.6L526.6,785.6z M526.9,813.5v-19.2h3.5v19.2H526.9z"/>
						<path class="st6" d="M564.2,788.6h-3.4v17.2h-3.6v-17.2h-11v-3h18.1L564.2,788.6L564.2,788.6z"/>
					</g>
					<text transform="matrix(1 0 0 1 565.0278 805.78)" class="st6 st8 st9">10</text>
					<g class="st5">
						<path class="st6" d="M609.9,805.5l0.5-3.3c1.2,0.4,2.4,0.6,3.7,0.6c1.4,0,2.6-0.3,3.6-0.9c1-0.6,1.7-1.4,2.3-2.5
							c0.5-1.1,0.8-2.3,0.8-3.7c0-2.1-0.6-3.8-1.7-5.2s-2.8-2-4.9-2c-1.3,0-2.5,0.2-3.7,0.6l-0.5-3.3c1.5-0.4,2.8-0.6,4-0.6
							c3.4,0,6,1,7.9,3s2.8,4.5,2.8,7.5c0,2-0.4,3.7-1.2,5.3c-0.8,1.5-2,2.8-3.6,3.7c-1.6,1-3.5,1.4-6,1.4
							C612.7,806.1,611.4,805.9,609.9,805.5z"/>
						<path class="st6" d="M631.1,785.6h11.2v5c0,1.4-0.1,2.6-0.4,3.5c-0.3,0.9-0.7,1.8-1.4,2.7l-1,1.4c-1,1.4-1.5,2.9-1.5,4.4v3.2
							h-3.6v-2.7c0-1.6,0.2-2.9,0.5-3.7s0.8-1.6,1.4-2.4l1.1-1.4c0.6-0.7,0.9-1.4,1.1-1.9s0.2-1.3,0.2-2.2v-2.7h-11.2V778h3.6
							L631.1,785.6L631.1,785.6z"/>
						<path class="st6" d="M660,785.6h11.2v5c0,1.4-0.1,2.6-0.4,3.5c-0.3,0.9-0.7,1.8-1.4,2.7l-1,1.4c-1,1.4-1.5,2.9-1.5,4.4v3.2
							h-3.6v-2.7c0-1.6,0.2-2.9,0.5-3.7s0.8-1.6,1.4-2.4l1.1-1.4c0.6-0.7,0.9-1.4,1.1-1.9c0.2-0.6,0.2-1.3,0.2-2.2v-2.7h-11.2V778
							h3.6L660,785.6L660,785.6z"/>
						<path class="st6" d="M690.4,802.7h3.2v3h-19.3v-3h12.5v-6.9c0-1.9-0.2-3.3-0.6-4.2c-0.4-0.9-1.2-1.7-2.3-2.3s-2.8-0.8-5.1-0.8
							c-0.8,0-2.1,0.1-3.8,0.3l-0.3-3c1.7-0.3,3.5-0.4,5.5-0.4c3.6,0,6.3,0.8,7.9,2.4c1.6,1.6,2.4,4,2.4,7.2v7.7H690.4z"/>
						<path class="st6" d="M706.8,792.7v6.2l1.9,6.9h-3.6l-1.4-5c-1.6,0-2.9,0.9-3.9,2.8l-1.1,2.1H695l1.6-3.1
							c1-1.9,2.1-3.1,3.3-3.6c1.3-0.6,2.3-0.9,3.3-0.9v-5.3c0-1.1-0.1-1.9-0.2-2.5c-0.2-0.6-0.5-1-1.1-1.4c-0.5-0.3-1.3-0.5-2.2-0.5
							c-0.8,0-1.5,0.1-2.1,0.2l-0.3-2.9c0.9-0.3,1.9-0.4,3.1-0.4c1.7,0,3,0.3,4,1s1.5,1.4,1.9,2.4
							C706.6,789.7,706.8,791,706.8,792.7z"/>
						<path class="st6" d="M716.7,785.6v20.2H713v-20.2H716.7z"/>
						<path class="st6" d="M724.3,794l-3.1-8.4h3.6l1.5,4.5c0.6-1.3,1.5-2.4,2.8-3.3c1.3-0.9,2.6-1.4,4.1-1.4s2.9,0.4,4,1.2
							s1.9,2,2.4,3.5s0.8,3.8,0.8,6.9v8.9H730v-3h6.7V797c0-2.2-0.1-3.9-0.2-4.9c-0.1-1-0.5-1.9-1.1-2.5s-1.4-1-2.3-1
							c-1.4,0-2.6,0.7-3.6,2.2s-1.8,4-2.5,7.6l-1.4,7.5h-3.7l1.6-7.9C723.5,797.1,723.8,795.9,724.3,794z"/>
						<path class="st6" d="M744.3,797.4V794h10.5v3.4H744.3z"/>
					</g>
				</g>
				<g id="Group_489" transform="translate(32)">
					<g class="st5">
						<path class="st6" d="M527.1,928h-17.6v-19.8c2.7-0.4,5.2-0.7,7.5-0.7c2.5,0,4.5,0.4,6,1.1c1.5,0.7,2.6,1.7,3.2,2.9
							s0.9,2.9,0.9,5.1L527.1,928L527.1,928z M523.4,924.9V917c0-1.5-0.2-2.7-0.5-3.5s-1-1.5-2-2s-2.4-0.8-4.3-0.8
							c-1.1,0-2.3,0.1-3.6,0.3v14L523.4,924.9L523.4,924.9z"/>
						<path class="st6" d="M536.5,907.8v10.5h-3.7v-10.5H536.5z"/>
						<path class="st6" d="M545.1,907.8l0.1,3.3c0.1,3.4,0.2,5.7,0.4,7c1.3,0,2.6-0.3,3.6-1c1.1-0.7,1.6-1.9,1.6-3.8l0.4-5.4h3.7
							l-0.5,6.4c-0.1,1.1-0.2,1.9-0.4,2.5s-0.5,1.1-1,1.8c-0.5,0.6-1.3,1.2-2.4,1.6c-1.1,0.5-2.6,0.8-4.5,0.9
							c0.3,1.4,1.1,2.5,2.2,3.3c1.2,0.8,2.6,1.2,4.3,1.2c1.6,0,2.9-0.4,4-1.1c1.1-0.7,1.9-1.7,2.5-2.9c0.5-1.2,0.9-2.8,1.1-5
							l0.8-8.7h3.7l-0.7,7.5c-0.3,2.8-0.7,5.1-1.4,7s-1.9,3.4-3.6,4.5s-3.9,1.7-6.6,1.7c-2.4,0-4.4-0.6-6-1.7
							c-1.6-1.1-2.8-2.8-3.6-4.9c-0.8-2.1-1.2-5-1.2-8.5l-0.3-5.6L545.1,907.8L545.1,907.8z"/>
						<path class="st6" d="M573.2,907.8v10.5h-3.7v-10.5H573.2z"/>
						<path class="st6" d="M588.5,914.9v6.2l1.9,6.9h-3.6l-1.4-5c-1.6,0-2.9,0.9-3.9,2.8l-1.1,2.1h-3.7l1.6-3.1
							c1-1.9,2.1-3.1,3.3-3.6c1.3-0.6,2.3-0.9,3.3-0.9V915c0-1.1-0.1-1.9-0.2-2.5c-0.2-0.6-0.5-1-1.1-1.4c-0.5-0.3-1.3-0.5-2.2-0.5
							c-0.8,0-1.5,0.1-2.1,0.2L579,908c0.9-0.3,1.9-0.4,3.1-0.4c1.7,0,3,0.3,4,1s1.5,1.4,1.9,2.4
							C588.3,911.9,588.5,913.2,588.5,914.9z"/>
						<path class="st6" d="M592.5,908c2-0.3,3.8-0.4,5.4-0.4c4.1,0,6.9,0.8,8.5,2.4c1.6,1.6,2.4,4,2.4,7.2V928h-3.6v-10
							c0-1.8-0.2-3.2-0.6-4.2c-0.4-0.9-1.1-1.7-2.3-2.3c-1.1-0.6-2.7-0.9-4.7-0.9c-1.4,0-3,0.1-4.9,0.4L592.5,908z"/>
						<path class="st6" d="M616.2,916.2l-3.1-8.4h3.6l1.5,4.5c0.6-1.3,1.5-2.4,2.8-3.3c1.3-0.9,2.6-1.4,4.1-1.4s2.9,0.4,4,1.2
							s1.9,2,2.4,3.5s0.8,3.8,0.8,6.9v8.9h-10.4v-3h6.7V919c0-2.2-0.1-3.9-0.2-4.9c-0.1-1-0.5-1.9-1.1-2.5s-1.4-1-2.3-1
							c-1.4,0-2.6,0.7-3.6,2.2s-1.8,4-2.5,7.6l-1.4,7.5h-3.7l1.6-7.9C615.4,919.3,615.8,918.1,616.2,916.2z"/>
						<path class="st6" d="M666.4,928h-17.6v-19.8c2.7-0.4,5.2-0.7,7.5-0.7c2.5,0,4.5,0.4,6,1.1c1.5,0.7,2.6,1.7,3.2,2.9
							s0.9,2.9,0.9,5.1L666.4,928L666.4,928z M662.8,924.9V917c0-1.5-0.2-2.7-0.5-3.5s-1-1.5-2-2s-2.4-0.8-4.3-0.8
							c-1.1,0-2.3,0.1-3.6,0.3v14L662.8,924.9L662.8,924.9z"/>
						<path class="st6" d="M670,927.5l0.6-2.7c0.7,0.2,1.4,0.3,2.2,0.3c0.9,0,1.5-0.2,1.8-0.6c0.3-0.4,0.5-1.1,0.5-2.1v-11.7
							c-1.1,0-2.4,0.1-4,0.3l-0.3-3c2.9-0.4,5.8-0.6,8.8-0.6s5.3,0.3,7,0.8c1.6,0.5,2.9,1.4,3.7,2.8c0.9,1.4,1.3,3.3,1.3,6v11H688
							v-10c0-2-0.1-3.4-0.4-4.3c-0.3-0.9-0.9-1.7-2-2.2s-2.7-0.9-5-0.9h-1.8v12.2c0,1.3-0.1,2.2-0.4,2.9c-0.2,0.7-0.7,1.2-1.5,1.7
							c-0.7,0.4-1.8,0.6-3.3,0.6C672.3,928.1,671.1,927.9,670,927.5z"/>
						<path class="st6" d="M715.2,928h-4.5l-7.7-10.9c-1.2,0.6-1.9,2-2.1,3.9l-0.8,7h-3.8l0.8-7c0.4-3.3,1.7-5.4,4-6.6l-4.7-6.6h4.5
							l6.5,9c0.8-0.5,1.3-1.1,1.6-1.8s0.6-1.7,0.7-3.2l0.5-4.1h3.8l-0.5,4.2c-0.2,1.8-0.6,3.3-1.2,4.4c-0.6,1.1-1.6,2.2-3.1,3.1
							L715.2,928z"/>
						<path class="st6" d="M747.6,928H730v-19.8c2.7-0.4,5.2-0.7,7.5-0.7c2.5,0,4.5,0.4,6,1.1c1.5,0.7,2.6,1.7,3.2,2.9
							s0.9,2.9,0.9,5.1L747.6,928L747.6,928z M744,924.9V917c0-1.5-0.2-2.7-0.5-3.5s-1-1.5-2-2s-2.4-0.8-4.3-0.8
							c-1.1,0-2.3,0.1-3.6,0.3v14L744,924.9L744,924.9z"/>
						<path class="st6" d="M771.3,928h-4.5l-7.7-10.9c-1.2,0.6-1.9,2-2.1,3.9l-0.8,7h-3.8l0.8-7c0.4-3.3,1.7-5.4,4-6.6l-4.7-6.6h4.5
							l6.5,9c0.8-0.5,1.3-1.1,1.6-1.8s0.6-1.7,0.7-3.2l0.5-4.1h3.8l-0.5,4.2c-0.2,1.8-0.6,3.3-1.2,4.4c-0.6,1.1-1.6,2.2-3.1,3.1
							L771.3,928z"/>
					</g>
					<g class="st5">
						<path class="st6" d="M457.7,957.6h-3.4v17.2h-3.6v-17.2h-11v-3h18.1v3H457.7z"/>
						<path class="st6" d="M465.2,954.6v20.2h-3.7v-20.2H465.2z"/>
						<path class="st6" d="M474.2,972.3l-3.5-17.7h3.8l3,16.6c2.2-0.9,3.5-2.1,4.1-3.7c0.5-1.6,0.8-3.6,0.8-6l0.2-7h3.7l-0.2,5.4
							c-0.1,2.6-0.2,4.4-0.3,5.4s-0.5,2.2-1,3.4c-0.5,1.3-1.3,2.3-2.4,3.3c-1,0.9-2.6,1.8-4.6,2.5c-2,0.8-4.9,1.5-8.6,2.1l-0.5-3.2
							C470.9,973.2,472.8,972.8,474.2,972.3z"/>
						<path class="st6" d="M506.3,954.6v20.2h-3.7v-20.2H506.3z"/>
						<path class="st6" d="M514,954.6h11.2v5c0,1.4-0.1,2.6-0.4,3.5c-0.3,0.9-0.7,1.8-1.4,2.7l-1,1.4c-1,1.4-1.5,2.9-1.5,4.4v3.2
							h-3.6v-2.7c0-1.6,0.2-2.9,0.5-3.7s0.8-1.6,1.4-2.4l1.1-1.4c0.6-0.7,0.9-1.4,1.1-1.9c0.2-0.6,0.2-1.3,0.2-2.2v-2.7h-11.2V947
							h3.6L514,954.6L514,954.6z"/>
						<path class="st6" d="M539.6,961.7v6.2l1.9,6.9h-3.6l-1.4-5c-1.6,0-2.9,0.9-3.9,2.8l-1.1,2.1h-3.7l1.6-3.1
							c1-1.9,2.1-3.1,3.3-3.6c1.3-0.6,2.3-0.9,3.3-0.9v-5.3c0-1.1-0.1-1.9-0.2-2.5c-0.2-0.6-0.5-1-1.1-1.4s-1.3-0.5-2.2-0.5
							c-0.8,0-1.5,0.1-2.1,0.2l-0.3-2.9c0.9-0.3,1.9-0.4,3.1-0.4c1.7,0,3,0.3,4,1s1.5,1.4,1.9,2.4
							C539.4,958.7,539.6,960,539.6,961.7z"/>
						<path class="st6" d="M543.6,954.8c2-0.3,3.8-0.4,5.4-0.4c4.1,0,6.9,0.8,8.5,2.4c1.6,1.6,2.4,4,2.4,7.2v10.9h-3.6V965
							c0-1.8-0.2-3.2-0.6-4.2c-0.4-0.9-1.1-1.7-2.3-2.3c-1.1-0.6-2.7-0.9-4.7-0.9c-1.4,0-3,0.1-4.9,0.4L543.6,954.8z"/>
						<path class="st6" d="M563.5,974.3l0.6-2.7c0.7,0.2,1.4,0.3,2.2,0.3c0.9,0,1.5-0.2,1.8-0.6c0.3-0.4,0.5-1.1,0.5-2.1v-11.7
							c-1.1,0-2.4,0.1-4,0.3l-0.3-3c2.9-0.4,5.8-0.6,8.8-0.6s5.3,0.3,7,0.8c1.6,0.5,2.9,1.4,3.7,2.8c0.9,1.4,1.3,3.3,1.3,6v10.9
							h-3.6v-9.9c0-2-0.1-3.4-0.4-4.3c-0.3-0.9-0.9-1.7-2-2.2s-2.7-0.9-5-0.9h-1.8v12.2c0,1.3-0.1,2.2-0.4,2.9
							c-0.2,0.7-0.7,1.2-1.5,1.7c-0.7,0.4-1.8,0.6-3.3,0.6C565.9,974.9,564.7,974.7,563.5,974.3z"/>
					</g>
					<g class="st5">
						<path class="st6" d="M608.4,974.8h-17.6V955c2.7-0.4,5.2-0.7,7.5-0.7c2.5,0,4.5,0.4,6,1.1c1.5,0.7,2.6,1.7,3.2,2.9
							s0.9,2.9,0.9,5.1L608.4,974.8L608.4,974.8z M604.7,971.7v-7.9c0-1.5-0.2-2.7-0.5-3.5c-0.3-0.9-1-1.5-2-2s-2.4-0.8-4.3-0.8
							c-1.1,0-2.3,0.1-3.6,0.3v14L604.7,971.7L604.7,971.7z"/>
						<path class="st6" d="M617.8,954.6V965h-3.7v-10.5L617.8,954.6L617.8,954.6z"/>
						<path class="st6" d="M631.6,974.8h-9.8v-3h6.1v-9.9c0-1.1-0.1-1.9-0.2-2.5c-0.2-0.6-0.5-1-1.1-1.4c-0.5-0.3-1.3-0.5-2.2-0.5
							c-0.8,0-1.5,0.1-2.1,0.2l-0.3-2.9c0.9-0.3,1.9-0.4,3.1-0.4c1.7,0,3,0.3,4,1s1.5,1.4,1.9,2.4c0.3,0.9,0.5,2.3,0.5,4
							L631.6,974.8L631.6,974.8z"/>
						<path class="st6" d="M636,974.5l0.5-3.3c1.2,0.4,2.4,0.6,3.7,0.6c1.4,0,2.6-0.3,3.6-0.9c1-0.6,1.7-1.4,2.3-2.5
							c0.5-1.1,0.8-2.3,0.8-3.7c0-2.1-0.6-3.8-1.7-5.2c-1.1-1.3-2.8-2-4.9-2c-1.3,0-2.5,0.2-3.7,0.6l-0.5-3.3c1.5-0.4,2.8-0.6,4-0.6
							c3.4,0,6,1,7.9,3s2.8,4.5,2.8,7.5c0,2-0.4,3.7-1.2,5.3c-0.8,1.5-2,2.8-3.6,3.7c-1.6,1-3.5,1.4-6,1.4
							C638.8,975.1,637.5,974.9,636,974.5z"/>
						<path class="st6" d="M659.1,954.6v20.2h-3.7v-20.2H659.1z"/>
						<path class="st6" d="M666.7,963l-3.1-8.4h3.6l1.5,4.5c0.6-1.3,1.5-2.4,2.8-3.3c1.3-0.9,2.6-1.4,4.1-1.4s2.9,0.4,4,1.2
							s1.9,2,2.4,3.5s0.8,3.8,0.8,6.9v8.9h-10.4v-3h6.7V966c0-2.2-0.1-3.9-0.2-4.9c-0.1-1-0.5-1.9-1.1-2.5s-1.4-1-2.3-1
							c-1.4,0-2.6,0.7-3.6,2.2s-1.8,4-2.5,7.6l-1.4,7.5h-3.7l1.6-7.9C666,966.1,666.3,964.9,666.7,963z"/>
						<path class="st6" d="M717.3,974.8h-4.5l-7.7-10.9c-1.2,0.6-1.9,2-2.1,3.9l-0.8,7h-3.8l0.8-7c0.4-3.3,1.7-5.4,4-6.6l-4.7-6.6
							h4.5l6.5,9c0.8-0.5,1.3-1.1,1.6-1.8s0.6-1.7,0.7-3.2l0.5-4.1h3.8l-0.5,4.2c-0.2,1.8-0.6,3.3-1.2,4.4c-0.6,1.1-1.6,2.2-3.1,3.1
							L717.3,974.8z"/>
						<path class="st6" d="M723.1,954.6h11.2v5c0,1.4-0.1,2.6-0.4,3.5c-0.3,0.9-0.7,1.8-1.4,2.7l-1,1.4c-1,1.4-1.5,2.9-1.5,4.4v3.2
							h-3.6v-2.7c0-1.6,0.2-2.9,0.5-3.7s0.8-1.6,1.4-2.4l1.1-1.4c0.6-0.7,0.9-1.4,1.1-1.9c0.2-0.6,0.2-1.3,0.2-2.2v-2.7h-11.2V947
							h3.6L723.1,954.6L723.1,954.6z"/>
						<path class="st6" d="M739.8,974.8v-3.9h3.9v3.9c0,1.4-0.3,2.6-0.8,3.5s-1.3,1.6-2.4,2l-1-1.5c0.7-0.3,1.3-0.8,1.6-1.4
							c0.3-0.6,0.5-1.5,0.6-2.7h-1.9V974.8z"/>
					</g>
				</g>
				<g id="Group_490" transform="translate(32)">
					<g class="st5">
						<path class="st6" d="M433.7,1096.6l0.6-2.7c0.7,0.2,1.4,0.3,2.2,0.3c0.9,0,1.5-0.2,1.8-0.6s0.5-1.1,0.5-2.1v-11.7
							c-1.1,0-2.4,0.1-4,0.3l-0.3-3c2.9-0.4,5.8-0.6,8.8-0.6s5.3,0.3,7,0.8c1.6,0.5,2.9,1.4,3.7,2.8c0.9,1.4,1.3,3.3,1.3,6v10.9
							h-3.6v-9.9c0-2-0.1-3.4-0.4-4.3s-0.9-1.7-2-2.2s-2.7-0.9-5-0.9h-1.8v12.2c0,1.3-0.1,2.2-0.4,2.9c-0.2,0.7-0.7,1.2-1.5,1.7
							c-0.7,0.4-1.9,0.6-3.3,0.6C436.1,1097.3,434.9,1097,433.7,1096.6z"/>
						<path class="st6" d="M464.7,1076.9v20.2H461v-20.2H464.7z"/>
						<path class="st6" d="M474.3,1076.9v10.5h-3.7v-10.5H474.3z"/>
						<path class="st6" d="M479,1087.1c0-3.2,0.9-5.8,2.6-7.8s4-3,6.9-3c1.7,0,3.2,0.4,4.6,1.1s2.5,1.9,3.5,3.6
							c0.9,1.6,1.4,3.7,1.4,6.1c0,2-0.4,3.8-1.1,5.4s-1.8,2.8-3.2,3.8c-1.4,1-3.2,1.4-5.2,1.4c-2.9,0-5.2-1-6.9-2.9
							C479.8,1092.8,479,1090.3,479,1087.1z M483,1087.1c0,2.4,0.5,4.2,1.4,5.6c1,1.3,2.3,2,4.1,2c1.9,0,3.3-0.7,4.2-2.2
							s1.4-3.3,1.4-5.4c0-2.4-0.5-4.3-1.5-5.7s-2.3-2-4.1-2c-1.8,0-3.2,0.7-4.1,2.2C483.4,1083,483,1084.8,483,1087.1z"/>
						<path class="st6" d="M506.3,1076.9v10.5h-3.7v-10.5H506.3z"/>
						<path class="st6" d="M511.9,1076.9h3.6v10.5c0,3,0.5,5,1.6,5.9c1.1,1,2.3,1.4,3.7,1.4s2.6-0.3,3.4-1c0.8-0.7,1.4-1.5,1.6-2.6
							s0.4-2.5,0.4-4.4v-2.6c0-3-0.9-4.4-2.6-4.4c-1.2,0-2.3,0.7-3.3,2l-1.1-1.9c1.4-2.3,3.1-3.4,5.2-3.4c1.8,0,3.1,0.7,4,2.1
							s1.4,3.4,1.4,6.1v1.4c0,2.6-0.3,4.7-0.8,6.1c-0.5,1.5-1.5,2.7-2.9,3.8c-1.4,1.1-3.2,1.6-5.5,1.6c-2,0-3.7-0.5-5.1-1.4
							c-1.4-1-2.4-2.2-3-3.7s-0.9-3.5-0.9-6.2v-9.3H511.9z"/>
						<path class="st6" d="M533,1077.1c2-0.3,3.8-0.4,5.4-0.4c4.1,0,6.9,0.8,8.5,2.4s2.4,4,2.4,7.2v10.9h-3.6v-9.9
							c0-1.8-0.2-3.2-0.6-4.2c-0.4-0.9-1.1-1.7-2.3-2.3c-1.1-0.6-2.7-0.9-4.7-0.9c-1.4,0-3,0.1-4.9,0.4L533,1077.1z"/>
						<path class="st6" d="M553.7,1096.8l0.5-3.3c1.2,0.4,2.4,0.6,3.7,0.6c1.4,0,2.6-0.3,3.6-0.9s1.7-1.4,2.3-2.5
							c0.5-1.1,0.8-2.3,0.8-3.7c0-2.1-0.6-3.8-1.7-5.2c-1.1-1.3-2.8-2-4.9-2c-1.3,0-2.5,0.2-3.7,0.6l-0.5-3.3c1.5-0.4,2.8-0.6,4-0.6
							c3.4,0,6,1,7.9,3s2.8,4.5,2.8,7.5c0,2-0.4,3.7-1.2,5.3c-0.8,1.5-2,2.8-3.6,3.7c-1.6,1-3.5,1.4-6,1.4
							C556.5,1097.4,555.1,1097.2,553.7,1096.8z"/>
						<path class="st6" d="M573,1077.3c2.3-0.4,4.5-0.6,6.7-0.6c4.2,0,7.1,0.8,8.7,2.3s2.4,4,2.4,7.2v10.9h-3.6v-9.9
							c0-2-0.2-3.5-0.7-4.4s-1.3-1.7-2.4-2.2c-1.1-0.5-2.8-0.7-5-0.7c-1.7,0-3.6,0.2-5.8,0.5L573,1077.3z M576.8,1085.7v11.4h-3.6
							v-11.4H576.8z"/>
						<path class="st6" d="M605.2,1096.6l0.6-2.7c0.7,0.2,1.4,0.3,2.2,0.3c0.9,0,1.5-0.2,1.8-0.6s0.5-1.1,0.5-2.1v-11.7
							c-1.1,0-2.4,0.1-4,0.3l-0.3-3c2.9-0.4,5.8-0.6,8.8-0.6s5.3,0.3,7,0.8c1.6,0.5,2.9,1.4,3.7,2.8c0.9,1.4,1.3,3.3,1.3,6v10.9
							h-3.6v-9.9c0-2-0.1-3.4-0.4-4.3c-0.3-0.9-0.9-1.7-2-2.2s-2.7-0.9-5-0.9H614v12.2c0,1.3-0.1,2.2-0.4,2.9
							c-0.2,0.7-0.7,1.2-1.5,1.7c-0.7,0.4-1.9,0.6-3.3,0.6C607.6,1097.3,606.4,1097,605.2,1096.6z"/>
						<path class="st6" d="M650.4,1097.1h-4.5l-7.7-10.9c-1.2,0.6-1.9,2-2.1,3.9l-0.8,7h-3.8l0.8-7c0.4-3.3,1.7-5.4,4-6.6l-4.7-6.6
							h4.5l6.5,9c0.8-0.5,1.3-1.1,1.6-1.8c0.3-0.7,0.6-1.7,0.7-3.2l0.5-4.1h3.8l-0.5,4.2c-0.2,1.8-0.6,3.3-1.2,4.4
							c-0.6,1.1-1.6,2.2-3.1,3.1L650.4,1097.1z"/>
					</g>
					<g class="st5">
						<path class="st6" d="M661,1076.9l-4.3,20.2H653l4.3-20.2H661z"/>
						<path class="st6" d="M661.1,1104.9l4.1-19.2h3.5l-4.1,19.2H661.1z M666.8,1076.9h16.5l-1.1,5c-0.5,2.5-1.5,4.5-3.1,6.1
							l-1.3,1.4c-1.3,1.4-2.2,2.9-2.5,4.4l-0.7,3.2H671l0.6-2.7c0.3-1.4,0.7-2.5,1.1-3.4c0.4-0.9,1.2-1.8,2.1-2.8l1.4-1.4
							c1.1-1.1,1.9-2.5,2.2-4.1l0.6-2.7h-12.9L666.8,1076.9z"/>
						<path class="st6" d="M692,1076.9l-2.2,10.5h-3.7l2.2-10.5H692z"/>
						<path class="st6" d="M699.7,1076.9h11.2l-1.1,5c-0.5,2.5-1.5,4.5-3.1,6.1l-1.3,1.4c-1.3,1.4-2.2,2.8-2.5,4.4l-0.7,3.2h-3.6
							l0.6-2.7c0.3-1.5,0.8-2.8,1.3-3.7c0.4-0.7,1.1-1.6,1.9-2.4l1.4-1.4c1.1-1.1,1.8-2.5,2.2-4.1l0.6-2.7h-11.2l2.3-10.8h3.6
							L699.7,1076.9z"/>
						<path class="st6" d="M729.3,1097.1h-3.6l2.3-10.9c0.2-1,0.3-1.9,0.3-2.6c0-1.3-0.5-2.3-1.6-3c-0.9-0.5-2.2-0.8-4.1-0.8
							c-1.1,0-2.3,0.1-3.7,0.3l-3.6,17h-3.6l4.2-19.8c2.8-0.4,5.3-0.7,7.6-0.7c4.8,0,7.6,1.3,8.4,4c0.2,0.5,0.2,1.2,0.2,1.9
							c0,0.9-0.1,2-0.4,3.2L729.3,1097.1z"/>
						<path class="st6" d="M741.2,1085.7l-2.4,11.4h-3.6l2.4-11.4H741.2z M739.1,1077.3c2.4-0.4,4.7-0.6,6.8-0.6
							c4.2,0,7,0.8,8.2,2.3c0.8,1,1.3,2.4,1.3,4.1c0,0.9-0.1,1.9-0.4,3.1l-2.3,10.9h-3.6l2.1-9.9c0.4-2,0.5-3.5,0.2-4.5
							c-0.5-1.9-2.8-2.9-6.8-2.9c-1.7,0-3.7,0.2-5.9,0.5L739.1,1077.3z"/>
					</g>
					<g class="st5">
						<path class="st6" d="M503.8,1143.4l0.6-2.7c0.7,0.2,1.4,0.3,2.2,0.3c0.9,0,1.5-0.2,1.8-0.6s0.5-1.1,0.5-2.1v-11.7
							c-1.1,0-2.4,0.1-4,0.3l-0.3-3c2.9-0.4,5.8-0.6,8.8-0.6c3,0,5.3,0.3,7,0.8c1.6,0.5,2.9,1.4,3.7,2.8c0.9,1.4,1.3,3.3,1.3,6v10.9
							h-3.6v-9.9c0-2-0.1-3.4-0.4-4.3c-0.3-0.9-0.9-1.7-2-2.2s-2.7-0.9-5-0.9h-1.8v12.2c0,1.3-0.1,2.2-0.4,2.9
							c-0.2,0.7-0.7,1.2-1.5,1.7c-0.7,0.4-1.8,0.6-3.3,0.6C506.1,1144.1,505,1143.8,503.8,1143.4z"/>
						<path class="st6" d="M534.7,1123.7v20.2H531v-20.2H534.7z"/>
						<path class="st6" d="M542.5,1123.7h11.2v5c0,1.4-0.1,2.6-0.4,3.5c-0.3,0.9-0.7,1.8-1.4,2.7l-1,1.4c-1,1.4-1.5,2.9-1.5,4.4v3.2
							h-3.6v-2.7c0-1.6,0.2-2.9,0.5-3.7c0.3-0.8,0.8-1.6,1.4-2.4l1.1-1.4c0.6-0.7,0.9-1.4,1.1-1.9c0.2-0.6,0.2-1.3,0.2-2.2v-2.7
							h-11.2V1116h3.6L542.5,1123.7L542.5,1123.7z"/>
						<path class="st6" d="M576.7,1143.9h-4.5l-7.7-10.9c-1.2,0.6-1.9,2-2.1,3.9l-0.8,7h-3.8l0.8-7c0.4-3.3,1.7-5.4,4-6.6l-4.7-6.6
							h4.5l6.5,9c0.8-0.5,1.3-1.1,1.6-1.8c0.3-0.7,0.6-1.7,0.7-3.2l0.5-4.1h3.8l-0.5,4.2c-0.2,1.8-0.6,3.3-1.2,4.4
							c-0.6,1.1-1.6,2.2-3.1,3.1L576.7,1143.9z"/>
						<path class="st6" d="M583.3,1123.7l0.1,3.3c0.1,3.4,0.2,5.7,0.4,7c1.3,0,2.6-0.3,3.6-1s1.6-1.9,1.6-3.8l0.4-5.4h3.7l-0.5,6.4
							c-0.1,1.1-0.2,1.9-0.4,2.5s-0.5,1.1-1,1.8c-0.5,0.6-1.3,1.2-2.4,1.6c-1.1,0.5-2.6,0.8-4.5,0.9c0.3,1.4,1.1,2.5,2.2,3.3
							s2.6,1.2,4.3,1.2c1.6,0,2.9-0.4,4-1.1s1.9-1.7,2.5-2.9c0.5-1.2,0.9-2.8,1.1-5l0.8-8.7h3.7l-0.7,7.5c-0.3,2.8-0.7,5.1-1.4,7
							s-1.9,3.4-3.6,4.5c-1.7,1.2-3.9,1.7-6.6,1.7c-2.4,0-4.4-0.6-6-1.7s-2.8-2.8-3.6-4.9s-1.2-5-1.2-8.5l-0.3-5.6h3.8V1123.7z"/>
						<path class="st6" d="M622.3,1123.7v28h-3.7v-28H622.3z"/>
						<path class="st6" d="M631.9,1123.7v10.5h-3.7v-10.5H631.9z"/>
						<path class="st6" d="M651.9,1140.9h3.2v3h-19.3v-3h12.5v-6.9c0-1.9-0.2-3.3-0.6-4.2c-0.4-0.9-1.2-1.7-2.3-2.3
							c-1.1-0.6-2.8-0.8-5.1-0.8c-0.8,0-2.1,0.1-3.8,0.3l-0.3-3c1.7-0.3,3.5-0.4,5.5-0.4c3.6,0,6.3,0.8,7.9,2.4
							c1.6,1.6,2.4,4,2.4,7.2v7.7H651.9z"/>
						<path class="st6" d="M667.6,1123.9c2-0.3,3.8-0.4,5.4-0.4c4.1,0,6.9,0.8,8.5,2.4s2.4,4,2.4,7.2v10.9h-3.6v-9.9
							c0-1.8-0.2-3.2-0.6-4.2c-0.4-0.9-1.1-1.7-2.3-2.3c-1.1-0.6-2.7-0.9-4.7-0.9c-1.4,0-3,0.1-4.9,0.4L667.6,1123.9z"/>
						<path class="st6" d="M703.7,1140.9h3.2v3h-19.3v-3h12.5v-6.9c0-1.9-0.2-3.3-0.6-4.2c-0.4-0.9-1.2-1.7-2.3-2.3
							c-1.1-0.6-2.8-0.8-5.1-0.8c-0.8,0-2.1,0.1-3.8,0.3l-0.3-3c1.7-0.3,3.5-0.4,5.5-0.4c3.6,0,6.3,0.8,7.9,2.4
							c1.6,1.6,2.4,4,2.4,7.2v7.7H703.7z"/>
						<path class="st6" d="M713.8,1141.4l-3.5-17.7h3.8l3,16.6c2.2-0.9,3.5-2.1,4.1-3.7c0.5-1.6,0.8-3.6,0.8-6l0.2-7h3.7l-0.2,5.4
							c-0.1,2.6-0.2,4.4-0.3,5.4s-0.5,2.2-1,3.4c-0.5,1.3-1.3,2.3-2.4,3.3c-1,0.9-2.6,1.8-4.6,2.5c-2,0.8-4.9,1.5-8.6,2.1l-0.5-3.2
							C710.6,1142.3,712.4,1141.9,713.8,1141.4z"/>
						<path class="st6" d="M733.1,1132.1l-3.1-8.4h3.6l1.5,4.5c0.6-1.3,1.5-2.4,2.8-3.3s2.6-1.4,4.1-1.4s2.9,0.4,4,1.2
							c1.1,0.8,1.9,2,2.4,3.5s0.8,3.8,0.8,6.9v8.9h-10.4v-3h6.7v-5.9c0-2.2-0.1-3.9-0.2-4.9c-0.1-1-0.5-1.9-1.1-2.5s-1.4-1-2.3-1
							c-1.4,0-2.6,0.7-3.6,2.2s-1.8,4-2.5,7.6l-1.4,7.5h-3.7l1.6-7.9C732.3,1135.3,732.6,1134,733.1,1132.1z"/>
						<path class="st6" d="M756.7,1123.7h11.2v5c0,1.4-0.1,2.6-0.4,3.5c-0.3,0.9-0.7,1.8-1.4,2.7l-1,1.4c-1,1.4-1.5,2.9-1.5,4.4v3.2
							H760v-2.7c0-1.6,0.2-2.9,0.5-3.7c0.3-0.8,0.8-1.6,1.4-2.4l1.1-1.4c0.6-0.7,0.9-1.4,1.1-1.9c0.2-0.6,0.2-1.3,0.2-2.2v-2.7H753
							V1116h3.6v7.7H756.7z"/>
					</g>
				</g>
				<g>
					<g>
						<defs>
							<rect id="SVGID_3_" x="496.6" y="1343.8" width="592.1" height="714"/>
						</defs>
						<clipPath id="SVGID_4_">
							<use xlink:href="#SVGID_3_"  style="overflow:visible;"/>
						</clipPath>
						<g id="Repeat_Grid_1" transform="translate(248.307 671.905)" class="st10">
							<g transform="translate(-248.307 -671.905)">
								<path id="Path_517" class="st11" d="M839.4,672.9H249.3"/>
							</g>
							<g transform="translate(-248.307 -499.905)">
								<path id="Path_517-2" class="st11" d="M839.4,672.9H249.3"/>
							</g>
							<g transform="translate(-248.307 -327.905)">
								<path id="Path_517-3" class="st11" d="M839.4,672.9H249.3"/>
							</g>
							<g transform="translate(-248.307 -155.905)">
								<path id="Path_517-4" class="st11" d="M839.4,672.9H249.3"/>
							</g>
							<g transform="translate(-248.307 16.095)">
								<path id="Path_517-5" class="st11" d="M839.4,672.9H249.3"/>
							</g>
						</g>
					</g>
				</g>
				<g id="Group_529" transform="translate(-5 23.921)">
					<g id="Group_528" transform="translate(275 1244.046)">
						<g id="Group_525" transform="translate(99.585)">
							<line id="Line_125" class="st12" x1="0" y1="38.5" x2="0" y2="2.5"/>
							<path id="Path_528" class="st13" d="M12.4,2.5C8.3-0.8,4.1-0.8,0,2.5v14.6c3.9-2,8.5-2,12.4,0c4.8,2.5,8.8,2,12.4,0V2.5
								C20.9,4.2,16.4,4.2,12.4,2.5z"/>
						</g>
						<g id="Group_526">
							<line id="Line_126" class="st12" x1="0" y1="38.5" x2="0" y2="2.5"/>
							<path id="Path_529" class="st13" d="M12.4,2.5C8.3-0.8,4.1-0.8,0,2.5v14.6c3.9-2,8.5-2,12.4,0c4.7,2.5,8.8,2,12.4,0V2.5
								C20.9,4.2,16.4,4.2,12.4,2.5z"/>
						</g>
						<g id="Group_527" transform="translate(47.515)">
							<line id="Line_127" class="st12" x1="0" y1="38.5" x2="0" y2="2.5"/>
							<path id="Path_530" class="st12" d="M12.4,17.1c-3.9-2-8.5-2-12.4,0V2.5c4.1-3.3,8.3-3.3,12.4,0"/>
							<path id="Path_531" class="st12" d="M12.4,2.5c4,1.7,8.5,1.7,12.4,0v14.6c-3.6,2-7.7,2.5-12.4,0"/>
						</g>
					</g>
					<path id="Path_533" class="st14" d="M394.2,1233.1c0-12.1-25.6-22-57.1-22s-57.1,9.8-57.1,22"/>
				</g>
				<g class="st5">
					<path class="st6" d="M474.8,1246.2c2.3-0.4,4.5-0.6,6.7-0.6c4.2,0,7.1,0.8,8.7,2.3s2.4,4,2.4,7.2v10.9H489v-9.9
						c0-2-0.2-3.5-0.7-4.4s-1.3-1.7-2.4-2.2s-2.8-0.7-5-0.7c-1.7,0-3.6,0.2-5.8,0.5L474.8,1246.2z M478.7,1254.6v11.4H475v-11.4
						H478.7z"/>
					<path class="st6" d="M500.2,1245.8h11.2v5c0,1.4-0.1,2.6-0.4,3.5s-0.7,1.8-1.4,2.7l-1,1.4c-1,1.4-1.5,2.9-1.5,4.4v3.2h-3.6
						v-2.7c0-1.6,0.2-2.9,0.5-3.7c0.3-0.8,0.8-1.6,1.4-2.4l1.1-1.4c0.6-0.7,0.9-1.4,1.1-1.9c0.2-0.6,0.2-1.3,0.2-2.2v-2.7h-11.2
						v-10.8h3.6L500.2,1245.8L500.2,1245.8z"/>
					<path class="st6" d="M534.4,1266h-4.5l-7.7-10.9c-1.2,0.6-1.9,2-2.1,3.9l-0.8,7h-3.8l0.8-7c0.4-3.3,1.7-5.4,4-6.6l-4.7-6.6h4.5
						l6.5,9c0.8-0.5,1.3-1.1,1.6-1.8c0.3-0.7,0.6-1.7,0.7-3.2l0.5-4.1h3.8l-0.5,4.2c-0.2,1.8-0.6,3.3-1.2,4.4
						c-0.6,1.1-1.6,2.2-3.1,3.1L534.4,1266z"/>
					<path class="st6" d="M541,1245.8l0.1,3.3c0.1,3.4,0.2,5.7,0.4,7c1.3,0,2.6-0.3,3.6-1s1.6-1.9,1.6-3.8l0.4-5.4h3.7l-0.5,6.4
						c-0.1,1.1-0.2,1.9-0.4,2.5s-0.5,1.1-1,1.8c-0.5,0.6-1.3,1.2-2.4,1.6c-1.1,0.5-2.6,0.8-4.5,0.9c0.3,1.4,1.1,2.5,2.2,3.3
						s2.6,1.2,4.3,1.2c1.6,0,2.9-0.4,4-1.1s1.9-1.7,2.5-2.9c0.5-1.2,0.9-2.8,1.1-5l0.8-8.7h3.7l-0.7,7.5c-0.3,2.8-0.7,5.1-1.4,7
						s-1.9,3.4-3.6,4.5c-1.7,1.2-3.9,1.7-6.6,1.7c-2.4,0-4.4-0.6-6-1.7s-2.8-2.8-3.6-4.9s-1.2-5-1.2-8.5l-0.3-5.6h3.8V1245.8z"/>
					<path class="st6" d="M578.1,1245.8h11.2v5c0,1.4-0.1,2.6-0.4,3.5c-0.3,0.9-0.7,1.8-1.4,2.7l-1,1.4c-1,1.4-1.5,2.9-1.5,4.4v3.2
						h-3.6v-2.7c0-1.6,0.2-2.9,0.5-3.7c0.3-0.8,0.8-1.6,1.4-2.4l1.1-1.4c0.6-0.7,0.9-1.4,1.1-1.9c0.2-0.6,0.2-1.3,0.2-2.2v-2.7
						h-11.2v-10.8h3.6L578.1,1245.8L578.1,1245.8z"/>
					<path class="st6" d="M597.4,1263.6l-3.5-17.7h3.8l3,16.6c2.2-0.9,3.5-2.1,4.1-3.7c0.5-1.6,0.8-3.6,0.8-6l0.2-7h3.7l-0.2,5.4
						c-0.1,2.6-0.2,4.4-0.3,5.4s-0.5,2.2-1,3.4c-0.5,1.3-1.3,2.3-2.4,3.3c-1,0.9-2.6,1.8-4.6,2.5c-2,0.8-4.9,1.5-8.6,2.1l-0.5-3.2
						C594.2,1264.4,596,1264,597.4,1263.6z"/>
					<path class="st6" d="M635.2,1253v6.2l1.9,6.9h-3.6l-1.4-5c-1.6,0-2.9,0.9-3.9,2.8l-1.1,2.1h-3.7l1.6-3.1c1-1.9,2.1-3.1,3.3-3.6
						c1.3-0.6,2.3-0.9,3.3-0.9v-5.3c0-1.1-0.1-1.9-0.2-2.5c-0.2-0.6-0.5-1-1.1-1.4s-1.3-0.5-2.2-0.5c-0.8,0-1.5,0.1-2.1,0.2
						l-0.3-2.9c0.9-0.3,1.9-0.4,3.1-0.4c1.7,0,3,0.3,4,1s1.5,1.4,1.9,2.4C635,1249.9,635.2,1251.2,635.2,1253z"/>
					<path class="st6" d="M643.2,1245.8h11.2v5c0,1.4-0.1,2.6-0.4,3.5c-0.3,0.9-0.7,1.8-1.4,2.7l-1,1.4c-1,1.4-1.5,2.9-1.5,4.4v3.2
						h-3.6v-2.7c0-1.6,0.2-2.9,0.5-3.7c0.3-0.8,0.8-1.6,1.4-2.4l1.1-1.4c0.6-0.7,0.9-1.4,1.1-1.9c0.2-0.6,0.2-1.3,0.2-2.2v-2.7
						h-11.2v-10.8h3.6L643.2,1245.8L643.2,1245.8z"/>
					<path class="st6" d="M675.5,1248.9H672v17.2h-3.6v-17.2h-11v-3h18.1V1248.9z"/>
					<path class="st6" d="M681.1,1245.8h11.2v5c0,1.4-0.1,2.6-0.4,3.5c-0.3,0.9-0.7,1.8-1.4,2.7l-1,1.4c-1,1.4-1.5,2.9-1.5,4.4v3.2
						h-3.6v-2.7c0-1.6,0.2-2.9,0.5-3.7c0.3-0.8,0.8-1.6,1.4-2.4l1.1-1.4c0.6-0.7,0.9-1.4,1.1-1.9c0.2-0.6,0.2-1.3,0.2-2.2v-2.7
						h-11.2v-10.8h3.6L681.1,1245.8L681.1,1245.8z"/>
				</g>
				<g class="st5">
					<path class="st6" d="M701,1245.8v20.2h-3.7v-20.2H701z"/>
					<path class="st6" d="M708.8,1245.8H720v5c0,1.4-0.1,2.6-0.4,3.5c-0.3,0.9-0.7,1.8-1.4,2.7l-1,1.4c-1,1.4-1.5,2.9-1.5,4.4v3.2
						H712v-2.7c0-1.6,0.2-2.9,0.5-3.7c0.3-0.8,0.8-1.6,1.4-2.4l1.1-1.4c0.6-0.7,0.9-1.4,1.1-1.9c0.2-0.6,0.2-1.3,0.2-2.2v-2.7h-11.2
						v-10.8h3.6v7.6H708.8z"/>
					<path class="st6" d="M723.6,1265.8l0.5-3.3c1.2,0.4,2.4,0.6,3.7,0.6c1.4,0,2.6-0.3,3.6-0.9s1.7-1.4,2.3-2.5
						c0.5-1.1,0.8-2.3,0.8-3.7c0-2.1-0.6-3.8-1.7-5.2c-1.1-1.3-2.8-2-4.9-2c-1.3,0-2.5,0.2-3.7,0.6l-0.5-3.3c1.5-0.4,2.8-0.6,4-0.6
						c3.4,0,6,1,7.9,3s2.8,4.5,2.8,7.5c0,2-0.4,3.7-1.2,5.3c-0.8,1.5-2,2.8-3.6,3.7c-1.6,1-3.5,1.4-6,1.4
						C726.4,1266.3,725,1266.1,723.6,1265.8z"/>
					<path class="st6" d="M746.7,1245.8v20.2H743v-20.2H746.7z"/>
					<path class="st6" d="M750.4,1265.6l0.6-2.7c0.7,0.2,1.4,0.3,2.2,0.3c0.9,0,1.5-0.2,1.8-0.6s0.5-1.1,0.5-2.1v-11.7
						c-1.1,0-2.4,0.1-4,0.3l-0.3-3c2.9-0.4,5.8-0.6,8.8-0.6s5.3,0.3,7,0.8c1.6,0.5,2.9,1.4,3.7,2.8c0.9,1.4,1.3,3.3,1.3,6v10.9h-3.6
						v-9.9c0-2-0.1-3.4-0.4-4.3c-0.3-0.9-0.9-1.7-2-2.2s-2.7-0.9-5-0.9h-1.8v12.2c0,1.3-0.1,2.2-0.4,2.9c-0.2,0.7-0.7,1.2-1.5,1.7
						c-0.7,0.4-1.9,0.6-3.3,0.6C752.8,1266.2,751.6,1266,750.4,1265.6z"/>
				</g>
				<g class="st5">
					<path class="st6" d="M495.8,1293c2.3-0.4,4.5-0.6,6.7-0.6c4.2,0,7.1,0.8,8.7,2.3c1.6,1.5,2.4,4,2.4,7.2v10.9H510v-9.9
						c0-2-0.2-3.5-0.7-4.4s-1.3-1.7-2.4-2.2s-2.8-0.7-5-0.7c-1.7,0-3.6,0.2-5.8,0.5L495.8,1293z M499.6,1301.4v11.4H496v-11.4H499.6
						z"/>
					<path class="st6" d="M523,1292.6v10.5h-3.7v-10.5H523z"/>
					<path class="st6" d="M530.8,1292.6H542v5c0,1.4-0.1,2.6-0.4,3.5c-0.3,0.9-0.7,1.8-1.4,2.7l-1,1.4c-1,1.4-1.5,2.9-1.5,4.4v3.2
						H534v-2.7c0-1.6,0.2-2.9,0.5-3.7c0.3-0.8,0.8-1.6,1.4-2.4l1.1-1.4c0.6-0.7,0.9-1.4,1.1-1.9c0.2-0.6,0.2-1.3,0.2-2.2v-2.7h-11.2
						V1285h3.6v7.6H530.8z"/>
					<path class="st6" d="M565,1312.8h-4.5l-7.7-10.9c-1.2,0.6-1.9,2-2.1,3.9l-0.8,7H546l0.8-7c0.4-3.3,1.7-5.4,4-6.6l-4.7-6.6h4.5
						l6.5,9c0.8-0.5,1.3-1.1,1.6-1.8c0.3-0.7,0.6-1.7,0.7-3.2l0.5-4.1h3.8l-0.5,4.2c-0.2,1.8-0.6,3.3-1.2,4.4
						c-0.6,1.1-1.6,2.2-3.1,3.1L565,1312.8z"/>
					<path class="st6" d="M577.6,1292.8c2-0.3,3.8-0.4,5.4-0.4c4.1,0,6.9,0.8,8.5,2.4s2.4,4,2.4,7.2v10.9h-3.6v-9.9
						c0-1.8-0.2-3.2-0.6-4.2c-0.4-0.9-1.1-1.7-2.3-2.3c-1.1-0.6-2.7-0.9-4.7-0.9c-1.4,0-3,0.1-4.9,0.4L577.6,1292.8z"/>
					<path class="st6" d="M603.4,1292.6v20.2h-3.7v-20.2H603.4z"/>
					<path class="st6" d="M620.4,1295.2c-1.9,0-3.5,0.6-4.6,1.7s-1.6,2.6-1.6,4.5c0,0.4,0.1,1.1,0.2,2.2c0.3,3.1,0.5,5.3,0.5,6.6
						v2.8h-3.7v-3.3c0-1.3-0.1-3.4-0.4-6.2c-0.1-0.9-0.1-1.7-0.1-2.3c0-2.1,0.9-3.9,2.6-5.3h-5.1v-3h12.2L620.4,1295.2L620.4,1295.2
						z"/>
					<path class="st6" d="M641.8,1312.8h-3.6v-10.9c0-1.5-0.2-2.7-0.5-3.5s-1-1.5-2-2s-2.4-0.8-4.3-0.8c-1.1,0-2.3,0.1-3.6,0.3v17
						h-3.6v-19.8c2.7-0.4,5.2-0.7,7.5-0.7c2.5,0,4.5,0.4,6,1.1s2.6,1.7,3.2,2.9s0.9,2.9,0.9,5.1L641.8,1312.8L641.8,1312.8z"/>
					<path class="st6" d="M649.3,1292.6h11.2v5c0,1.4-0.1,2.6-0.4,3.5c-0.3,0.9-0.7,1.8-1.4,2.7l-1,1.4c-1,1.4-1.5,2.9-1.5,4.4v3.2
						h-3.6v-2.7c0-1.6,0.2-2.9,0.5-3.7c0.3-0.8,0.8-1.6,1.4-2.4l1.1-1.4c0.6-0.7,0.9-1.4,1.1-1.9c0.2-0.6,0.2-1.3,0.2-2.2v-2.7
						h-11.2V1285h3.6L649.3,1292.6L649.3,1292.6z"/>
					<path class="st6" d="M669.3,1292.6v20.2h-3.7v-20.2H669.3z"/>
					<path class="st6" d="M683.8,1312.4l0.6-2.7c0.7,0.2,1.4,0.3,2.2,0.3c0.9,0,1.5-0.2,1.8-0.6s0.5-1.1,0.5-2.1v-11.7
						c-1.1,0-2.4,0.1-4,0.3l-0.3-3c2.9-0.4,5.8-0.6,8.8-0.6s5.3,0.3,7,0.8c1.6,0.5,2.9,1.4,3.7,2.8c0.9,1.4,1.3,3.3,1.3,6v10.9h-3.6
						v-9.9c0-2-0.1-3.4-0.4-4.3c-0.3-0.9-0.9-1.7-2-2.2s-2.7-0.9-5-0.9h-1.8v12.2c0,1.3-0.1,2.2-0.4,2.9c-0.2,0.7-0.7,1.2-1.5,1.7
						c-0.7,0.4-1.8,0.6-3.3,0.6C686.2,1313,685,1312.8,683.8,1312.4z"/>
					<path class="st6" d="M714.2,1310.4l-3.5-17.7h3.8l3,16.6c2.2-0.9,3.5-2.1,4.1-3.7c0.5-1.6,0.8-3.6,0.8-6l0.2-7h3.7l-0.2,5.4
						c-0.1,2.6-0.2,4.4-0.3,5.4s-0.5,2.2-1,3.4c-0.5,1.3-1.3,2.3-2.4,3.3c-1,0.9-2.6,1.8-4.6,2.5c-2,0.8-4.9,1.5-8.6,2.1l-0.5-3.2
						C710.9,1311.2,712.7,1310.8,714.2,1310.4z"/>
					<path class="st6" d="M744.4,1292.6h11.2v5c0,1.4-0.1,2.6-0.4,3.5c-0.3,0.9-0.7,1.8-1.4,2.7l-1,1.4c-1,1.4-1.5,2.9-1.5,4.4v3.2
						h-3.6v-2.7c0-1.6,0.2-2.9,0.5-3.7c0.3-0.8,0.8-1.6,1.4-2.4l1.1-1.4c0.6-0.7,0.9-1.4,1.1-1.9c0.2-0.6,0.2-1.3,0.2-2.2v-2.7
						h-11.2V1285h3.6L744.4,1292.6L744.4,1292.6z"/>
					<path class="st6" d="M759.2,1312.6l0.5-3.3c1.2,0.4,2.4,0.6,3.7,0.6c1.4,0,2.6-0.3,3.6-0.9s1.7-1.4,2.3-2.5
						c0.5-1.1,0.8-2.3,0.8-3.7c0-2.1-0.6-3.8-1.7-5.2c-1.1-1.3-2.8-2-4.9-2c-1.3,0-2.5,0.2-3.7,0.6l-0.5-3.3c1.5-0.4,2.8-0.6,4-0.6
						c3.4,0,6,1,7.9,3s2.8,4.5,2.8,7.5c0,2-0.4,3.7-1.2,5.3c-0.8,1.5-2,2.8-3.6,3.7c-1.6,1-3.5,1.4-6,1.4
						C762,1313.1,760.7,1312.9,759.2,1312.6z"/>
					<path class="st6" d="M792.7,1309.8h3.2v3h-19.3v-3h12.5v-6.9c0-1.9-0.2-3.3-0.6-4.2c-0.4-0.9-1.2-1.7-2.3-2.3
						c-1.1-0.6-2.8-0.8-5.1-0.8c-0.8,0-2.1,0.1-3.8,0.3l-0.3-3c1.7-0.3,3.5-0.4,5.5-0.4c3.6,0,6.3,0.8,7.9,2.4
						c1.6,1.6,2.4,4,2.4,7.2v7.7H792.7z"/>
				</g>
				<g id="Group_550" transform="matrix(0.966, 0.259, -0.259, 0.966, -296.046, -178.577)">
					<g id="Group_488-2" transform="translate(767.998 516.731)">
						<path id="Rectangle_51" class="st15" d="M4,49.8h29.4c2.2,0,4,1.8,4,4v44.6c0,2.2-1.8,4-4,4H4c-2.2,0-4-1.8-4-4l0-44.6
							C0,51.6,1.8,49.8,4,49.8z"/>
						<path id="Path_507" class="st16" d="M24.8,49l4.9-9.3l-8-4.6l4.4-8.8"/>
						<circle id="Ellipse_18" class="st17" cx="27.6" cy="23" r="5.7"/>
						<g id="Group_487-3" transform="translate(18.352)">
							<path id="Path_508" class="st16" d="M0,2.3c5.7-3,12.6-3,18.3,0"/>
							<path id="Path_509" class="st16" d="M4.7,10.7c2.8-1.5,6.2-1.5,9,0"/>
						</g>
					</g>
					<path id="Path_510" class="st18" d="M779,579.2h16.3"/>
				</g>
				<g id="Group_551" transform="translate(284.506 734.563)">
					<path id="Path_470" class="st12" d="M53.5,42.2c0,14.8-12,26.7-26.7,26.7C12,69,0,57,0,42.2s12-26.7,26.7-26.7
						S53.5,27.4,53.5,42.2L53.5,42.2z"/>
					<path id="Path_471" class="st12" d="M26.7,28.6v13.6l7.1,6.1"/>
					<rect id="Rectangle_44" x="25.9" y="1.3" class="st12" width="1.7" height="12.7"/>
					<rect id="Rectangle_46" x="22.4" y="0" class="st12" width="8.7" height="2.9"/>
				</g>
				<g id="Group_552" transform="translate(290.098 904.616)">
					<g id="Group_292">
						<g id="Group_290" transform="translate(0 34.323)">
							<path id="Path_453" class="st17" d="M12,1.9c2.5,2.5,2.5,6.6,0,9.1l-8.8,2.8c-1.3,0.4-2.7-0.3-3.1-1.6c-0.2-0.5-0.2-1,0-1.5
								l2.8-8.8C5.4-0.6,9.5-0.6,12,1.9L12,1.9z"/>
						</g>
						<g id="Group_291">
							<path id="Path_454" class="st12" d="M2.8,36L2.8,36L36.9,1.9c2.5-2.5,6.6-2.5,9.1,0s2.5,6.6,0,9.1L12,45l-0.1,0.1"/>
							<path id="Path_455" class="st12" d="M2.9,35.9c2.5-2.5,6.6-2.5,9.1,0s2.5,6.6,0,9.1l0,0l-8.8,2.8c-1.3,0.4-2.7-0.3-3.1-1.6
								c-0.2-0.5-0.2-1,0-1.5L2.9,35.9z"/>
						</g>
					</g>
					<path id="Path_456" class="st12" d="M47.6,65.6l-5.8-4.9C37.4,57,32.2,58,29.1,63l0,0c-3.2,5.2-8.5,6-13,2L10,59.5"/>
				</g>
				<g id="Group_553" transform="translate(-156.232 323.236)">
					<g id="Group_31" transform="translate(461.94 771.776)">
						<g id="Group_30">
							<g id="Group_29">
								<line id="Line_74" class="st12" x1="22.1" y1="19.5" x2="22.1" y2="24.8"/>
								<path id="Path_74" class="st12" d="M13.6,30V4.1c0-2.3,1.9-4.1,4.2-4.1c1.1,0,2.2,0.4,3,1.2C21.6,2,22.1,3,22.1,4.1v10.5"/>
								<line id="Line_75" class="st12" x1="38.9" y1="22.4" x2="38.9" y2="27.7"/>
								<path id="Path_75" class="st12" d="M13.6,30l-6.5-6.4c-1.7-1.6-4.3-1.6-5.9,0s-1.6,4.2-0.1,5.8c0,0,0,0,0.1,0.1l10.6,10.4
									l6,5.4h29.4V21.7c0-2.3-1.9-4.2-4.2-4.1l0,0c-1.1,0-2.2,0.4-3,1.2c-0.8,0.8-1.2,1.8-1.2,2.9"/>
								<path id="Path_76" class="st12" d="M30.5,18.3v-3.7c0-2.3-1.9-4.1-4.2-4.1c-1.1,0-2.2,0.4-3,1.2s-1.2,1.8-1.2,2.9v4.9"/>
								<path id="Path_77" class="st12" d="M30.5,26.7v-8.4c0-2.3,1.9-4.1,4.2-4.1l0,0c1.1,0,2.2,0.4,3,1.2c0.8,0.8,1.2,1.8,1.2,2.9
									v4.1"/>
							</g>
						</g>
					</g>
					<g id="Group_401" transform="translate(429.08 746.252)">
						<g id="Group_402" transform="translate(0 0)">
							<path id="Path_479" class="st2" d="M21,37.4H3.5c-1.9,0-3.5-1.6-3.5-3.5V3.5C0,1.6,1.6,0,3.5,0l0,0H21c1.9,0,3.5,1.6,3.5,3.5
								l0,0v30.4C24.5,35.8,22.9,37.4,21,37.4"/>
							<path id="Rectangle_51-2" class="st19" d="M4,0h16.4c2.2,0,4,1.8,4,4v29.3c0,2.2-1.8,4-4,4H4c-2.2,0-4-1.8-4-4V4
								C0,1.8,1.8,0,4,0z"/>
						</g>
					</g>
					<g id="Group_493" transform="matrix(0.899, 0.438, -0.438, 0.899, 454.837, 731.898)">
						<g id="Group_402-2" transform="translate(0 0)">
							<path id="Path_479-2" class="st2" d="M21,37.4H3.5c-1.9,0-3.5-1.6-3.5-3.5l0,0L0,3.5C0,1.6,1.6,0,3.5,0l0,0L21,0
								c1.9,0,3.5,1.6,3.5,3.5l0,0v30.4C24.5,35.8,22.9,37.4,21,37.4L21,37.4"/>
							<path id="Rectangle_51-3" class="st20" d="M4,0l16.4,0c2.2,0,4,1.8,4,4v29.3c0,2.2-1.8,4-4,4H4c-2.2,0-4-1.8-4-4L0,4
								C0,1.8,1.8,0,4,0z"/>
						</g>
					</g>
				</g>
			</g>
		</g>
	</g>
</g>
<rect x="-1292" y="-133.7" class="st21" width="467.3" height="211.7"/>
<rect x="-1292" y="78" class="st22" width="467.3" height="211.7"/>
<rect x="-1292" y="277.6" class="st23" width="467.3" height="211.7"/>
<rect x="-1294.4" y="504.3" class="st24" width="467.3" height="211.7"/>
<g>
	<path class="st2" d="M-1181.1-33.2l5.1-3.7c9.9-7,18.6-15.4,18.6-23.4c0-5.8-3-10-9.6-10c-4.9,0-8.5,2-11.8,4.6l-2.4-5.5
		c3.8-2.8,8.6-5.3,15-5.3c11.6,0,15.6,7.9,15.6,15.5c0,10.5-10.8,19.9-19.4,26.2c3.4-0.2,6.6-0.2,11.8-0.2h10.2v6h-33L-1181.1-33.2
		L-1181.1-33.2z"/>
	<path class="st2" d="M-1140.3-33.2l5.1-3.7c9.9-7,18.6-15.4,18.6-23.4c0-5.8-3-10-9.6-10c-4.9,0-8.5,2-11.8,4.6l-2.4-5.5
		c3.8-2.8,8.6-5.3,15-5.3c11.6,0,15.6,7.9,15.6,15.5c0,10.5-10.8,19.9-19.4,26.2c3.4-0.2,6.6-0.2,11.8-0.2h10.2v6h-33L-1140.3-33.2
		L-1140.3-33.2z"/>
	<path class="st2" d="M-1097.5-38.9c3.8,2.9,8.1,4.6,13.2,4.6c8.3,0,10.7-3.9,10.7-7.8c0-4.4-3.5-8.1-11.8-8.1h-5.4v-6.1h5.1
		c7.4,0,10.4-3,10.4-7c0-3.4-2.2-7.2-9.3-7.2c-4.9,0-8.6,1.4-11.9,3.8l-1.9-5.6c3.3-2,7.8-4.2,14.5-4.2c10.4,0,15,5.6,15,12.3
		c0,5.7-3.9,9.2-7.9,10.3v0.2c4.8,1.1,10,4.5,10,11.6c0,8.2-6.6,13.8-17.2,13.8c-7.4-0.1-12.2-2.1-15.8-4.6L-1097.5-38.9z"/>
	<path class="st2" d="M-1056.7-82.1c4.3-0.6,9.4-1.1,14.9-1.1c10,0,17.1,2.3,21.8,6.7c4.8,4.4,7.6,10.7,7.6,19.4
		c0,8.8-2.7,15.9-7.8,21c-5.1,5-13.4,7.8-23.8,7.8c-5,0-9.1-0.2-12.7-0.6V-82.1z M-1049.6-34.4c1.8,0.3,4.3,0.4,7,0.4
		c14.9,0,23-8.3,23-22.9c0.1-12.7-7.1-20.8-21.8-20.8c-3.6,0-6.3,0.4-8.2,0.7V-34.4z"/>
	<path class="st2" d="M-976.1-76c-1.5,0-3.2,0-5.3,0.4c-11,1.8-16.9,9.8-18.1,18.5h0.2c2.5-3.4,6.9-6.2,12.6-6.2
		c9.2,0,15.7,6.7,15.7,16.9c0,9.5-6.5,18.3-17.4,18.3c-11,0-18.3-8.6-18.3-22.2c0-10.2,3.6-18.3,8.8-23.4c4.3-4.2,10.1-6.9,16.6-7.7
		c2.1-0.3,3.8-0.5,5.1-0.4v5.8H-976.1z M-978.1-46c0-7.4-4.2-11.9-10.7-11.9c-4.2,0-8.2,2.6-10.2,6.4c-0.4,0.8-0.7,1.8-0.7,3
		c0.2,8.6,4.1,15,11.4,15C-982.2-33.4-978.1-38.5-978.1-46z"/>
	<path class="st2" d="M-962.3-82.1c4.3-0.6,9.4-1.1,14.9-1.1c10,0,17.1,2.3,21.8,6.7c4.8,4.4,7.6,10.7,7.6,19.4
		c0,8.8-2.7,15.9-7.8,21c-5.1,5-13.4,7.8-23.8,7.8c-5,0-9.1-0.2-12.7-0.6V-82.1z M-955.3-34.4c1.8,0.3,4.3,0.4,7,0.4
		c14.9,0,23-8.3,23-22.9c0.1-12.7-7.1-20.8-21.8-20.8c-3.6,0-6.3,0.4-8.2,0.7V-34.4z"/>
</g>
<g>
	<path class="st2" d="M-1159.9,158.4c3.8,2.9,8.3,4.7,13.4,4.7c8.9,0,11-5.1,11-9.1c0-4.2-2.4-9.8-13.7-9.8c-4.2,0-7.3,0.6-9.8,1.3
		v-2l3.5-21.8h24.6l-0.5,6.1h-19.6l-1.7,11.1c1.4-0.2,3-0.5,5.7-0.5c13,0,18.2,7,18.2,14.9c0,9.3-6.4,15.8-18.1,15.8
		c-6.2,0-11.4-1.8-15-4.6L-1159.9,158.4z"/>
	<path class="st2" d="M-1091,162.7v5.8h-27.5v-5.8h11.1v-34c-2.5,1.3-6.8,2.9-9.2,3.6l-0.8-5.4c4.1-1.4,9.2-3.7,11.9-5.4h4.6v41.3
		h9.9V162.7z"/>
	<path class="st2" d="M-1054.8,121.1c1.8,0,3,0.1,4,0.3l-0.3,6.1c-1.3-0.2-2.7-0.3-3.9-0.3c-10.8,0-17.8,6.4-19.2,16.2
		c2.8-3.4,7.7-5.7,12.6-5.7c9.8,0,14.8,6.6,14.8,15.2c0,8.1-5.6,16.4-16.6,16.4s-17.4-8.8-17.4-21.2
		C-1080.8,130-1068.4,121.1-1054.8,121.1z M-1063.2,163.2c6.1,0,10-4.2,10-9.8c0-5.4-3.2-9.8-9.9-9.8c-4.8,0-9.1,2.7-11.1,6.1
		C-1074.3,157-1069.8,163.3-1063.2,163.2z"/>
	<path class="st2" d="M-1037.6,114.6h29v5.8h-22v18h20.4v5.8h-20.4v24.4h-7V114.6z"/>
	<path class="st2" d="M-989.9,151.6l-5.5,17h-7.3l18.4-53.9h8.3l18.4,53.9h-7.4l-5.8-17H-989.9z M-972.3,146.1l-5.3-15.5
		c-1.2-3.5-2-6.7-2.8-9.8h-0.2c-0.7,3.2-1.6,6.5-2.6,9.8l-5.3,15.6h16.2V146.1z"/>
	<path class="st2" d="M-949.9,158.4c3.8,2.9,8.3,4.7,13.4,4.7c8.9,0,11-5.1,11-9.1c0-4.2-2.4-9.8-13.7-9.8c-4.2,0-7.3,0.6-9.8,1.3
		v-2l3.5-21.8h24.6l-0.5,6.1H-941l-1.7,11.1c1.4-0.2,3-0.5,5.7-0.5c13,0,18.2,7,18.2,14.9c0,9.3-6.4,15.8-18.1,15.8
		c-6.2,0-11.4-1.8-15-4.6L-949.9,158.4z"/>
</g>
<g>
	<path class="st2" d="M-1128.8,334.9c1.8,0,3,0.1,4,0.3l-0.3,6.1c-1.3-0.2-2.7-0.3-3.9-0.3c-10.8,0-17.8,6.4-19.2,16.2
		c2.8-3.4,7.7-5.7,12.6-5.7c9.8,0,14.8,6.6,14.8,15.2c0,8.1-5.6,16.4-16.6,16.4s-17.4-8.8-17.4-21.2
		C-1154.8,343.9-1142.4,334.9-1128.8,334.9z M-1137.2,377.1c6.1,0,10-4.2,10-9.8c0-5.4-3.2-9.8-9.9-9.8c-4.8,0-9.1,2.7-11.1,6.1
		C-1148.3,370.8-1143.8,377.2-1137.2,377.1z"/>
	<path class="st2" d="M-1088.3,341.7h-25.3v-6.1h32.2v4.7c-4.6,10.2-13.9,30.8-19.4,42h-7C-1100.2,367.2-1090.2,345.6-1088.3,341.7z
		"/>
	<path class="st2" d="M-1064.3,358c-4.7-1.8-7.3-5.9-7.3-10.6c0-6.4,4.7-12.6,15.2-12.6s14.6,6.3,14.6,12.3c0,5.5-2.8,8.8-6.8,10.5
		c5.1,1.5,8.6,5.7,8.6,11.4c0,7.8-5.5,14.2-16.9,14.2s-16.2-7-16.2-13.8C-1073.1,363.7-1069.6,359.7-1064.3,358z M-1056.3,377.3
		c7.2,0,9.8-4.2,9.8-8.2c0-4.9-3.6-8.2-10.2-8.2s-9.8,3.6-9.8,8C-1066.5,373.3-1063.3,377.3-1056.3,377.3z M-1048.1,347.9
		c0-4.1-2.6-7.3-8.7-7.3c-6,0-8.5,3.4-8.5,7c0,4.3,3.2,7.4,8.7,7.4C-1050.3,354.9-1048.1,351.8-1048.1,347.9z"/>
	<path class="st2" d="M-1030.2,328.4h29v5.8h-22v18h20.4v5.8h-20.4v24.4h-7V328.4z"/>
	<path class="st2" d="M-991.3,329.2c3.1-0.6,8-1.1,12.8-1.1c7,0,11.4,1.2,14.7,3.9c2.9,2.1,4.6,5.3,4.6,9.5c0,5.2-3.5,9.8-9.1,11.8
		v0.2c5.1,1.3,11.1,5.4,11.1,13.6c0,4.6-1.8,8.1-4.6,10.7c-3.7,3.4-9.8,5-18.6,5c-4.9,0-8.5-0.3-10.9-0.6V329.2z M-984.3,351.3h6.3
		c7.3,0,11.7-3.9,11.7-9.1c0-6.3-4.8-8.8-11.8-8.8c-3.2,0-5,0.2-6.2,0.5V351.3z M-984.3,377.1c1.4,0.2,3.3,0.3,5.8,0.3
		c7.2,0,13.9-2.6,13.9-10.4c0-7.4-6.4-10.5-14-10.5h-5.8L-984.3,377.1L-984.3,377.1z"/>
	<path class="st2" d="M-947.9,328.4h29v5.8h-22v18h20.4v5.8h-20.4v24.4h-7V328.4z"/>
</g>
<g>
	<path class="st2" d="M-1141.8,605.5c3.7-5.1,18.1-25.3,21.8-29.9h6.6v28.6h6.9v5.8h-6.9v12.6h-6.2V610h-22.2L-1141.8,605.5
		L-1141.8,605.5z M-1119.5,604.2v-7.6c0-6.2,0.2-11.6,0.3-14h-0.1c-2.6,3.7-13.4,19-15.3,21.6H-1119.5z"/>
	<path class="st2" d="M-1060.1,621c-2.6,1.2-7.7,2.6-14.3,2.6c-15.1,0-26.6-9.7-26.6-27.4c0-16.9,11.4-28.2,28.2-28.2
		c6.6,0,11,1.4,12.8,2.3l-1.7,5.7c-2.6-1.3-6.4-2.2-10.9-2.2c-12.6,0-21,8.1-21,22.2c0,13.2,7.6,21.7,20.7,21.7
		c4.2,0,8.6-0.9,11.4-2.2L-1060.1,621z"/>
	<path class="st2" d="M-1051.6,612.6c3.8,2.9,8.3,4.7,13.4,4.7c8.9,0,11-5.1,11-9.1c0-4.2-2.4-9.8-13.7-9.8c-4.2,0-7.3,0.6-9.8,1.3
		v-2l3.5-21.8h24.6l-0.5,6.1h-19.6l-1.7,11.1c1.4-0.2,3-0.5,5.7-0.5c13,0,18.2,7,18.2,14.9c0,9.3-6.4,15.8-18.1,15.8
		c-6.2,0-11.4-1.8-15-4.6L-1051.6,612.6z"/>
	<path class="st2" d="M-987.2,575.3c1.8,0,3,0.1,4,0.3l-0.3,6.1c-1.3-0.2-2.7-0.3-3.9-0.3c-10.8,0-17.8,6.4-19.2,16.2
		c2.8-3.4,7.7-5.7,12.6-5.7c9.8,0,14.8,6.6,14.8,15.2c0,8.1-5.6,16.4-16.6,16.4s-17.4-8.8-17.4-21.2
		C-1013.2,584.2-1000.8,575.3-987.2,575.3z M-995.6,617.4c6.1,0,10-4.2,10-9.8c0-5.4-3.2-9.8-9.9-9.8c-4.8,0-9.1,2.7-11.1,6.1
		C-1006.7,611.2-1002.2,617.5-995.6,617.4z"/>
	<path class="st2" d="M-946.5,575.3c1.8,0,3,0.1,4,0.3l-0.3,6.1c-1.3-0.2-2.7-0.3-3.9-0.3c-10.8,0-17.8,6.4-19.2,16.2
		c2.8-3.4,7.7-5.7,12.6-5.7c9.8,0,14.8,6.6,14.8,15.2c0,8.1-5.6,16.4-16.6,16.4s-17.4-8.8-17.4-21.2
		C-972.5,584.2-960.1,575.3-946.5,575.3z M-954.9,617.4c6.1,0,10-4.2,10-9.8c0-5.4-3.2-9.8-9.9-9.8c-4.8,0-9.1,2.7-11.1,6.1
		C-965.9,611.2-961.5,617.5-954.9,617.4z"/>
	<path class="st2" d="M-914.8,575.2c12.6,0,17.4,11.8,17.4,24c0,13.2-5.6,24.3-17.3,24.3c-11.1,0-17.6-9.8-17.6-24.3
		C-932.3,584.6-925.5,575.2-914.8,575.2z M-914.6,617.5c7.1,0,10.3-8,10.3-18.3c0-11.4-4-18.1-10.8-18.1c-6.2,0-10.7,6.4-10.7,17.9
		C-925.8,609.7-921.9,617.5-914.6,617.5z"/>
</g>
</svg>
