<?xml version="1.0" encoding="utf-8"?>
<!-- Generator: Adobe Illustrator 25.0.0, SVG Export Plug-In . SVG Version: 6.00 Build 0)  -->
<svg version="1.1" id="f03e336e-b2ee-4126-8c63-bd5db0b9033d"
	 xmlns="http://www.w3.org/2000/svg" xmlns:xlink="http://www.w3.org/1999/xlink" x="0px" y="0px" viewBox="0 0 226 101.7"
	 style="enable-background:new 0 0 226 101.7;" xml:space="preserve">
<style type="text/css">
	.st0{fill:#223D6D;stroke:#223D6D;stroke-width:6;stroke-linecap:round;stroke-linejoin:round;}
	.st1{fill:#FFFFFF;}
</style>
<g id="b098714f-ee51-46ce-b64b-e3dfb18832c6">
	<path id="a243c903-2505-4bf8-8604-c0f00c976880" class="st0" d="M26,3h174c12.7,0,23,10.3,23,23v49.7c0,12.7-10.3,23-23,23H26
		c-12.7,0-23-10.3-23-23V26C3,13.3,13.3,3,26,3z"/>
</g>
<path class="st1" d="M46,43.2c1.7,1.5,2.6,3.8,2.6,6.9v11.1c0,0.2-0.1,0.5-0.3,0.6c-0.2,0.2-0.4,0.3-0.7,0.3h-4.4
	c-0.3,0-0.5-0.1-0.7-0.3s-0.3-0.4-0.3-0.7v-11c0-2.8-1.4-4.2-4.2-4.2h-2.4c-0.4,1.8-0.6,3.6-0.6,5.4l0.3,9.7c0,0.3-0.1,0.5-0.3,0.7
	S34.6,62,34.3,62h-7.8c-0.3,0-0.5-0.1-0.7-0.3s-0.3-0.4-0.3-0.7v-2.9c0-0.3,0.1-0.5,0.3-0.7c0.2-0.2,0.4-0.3,0.7-0.3h3v-5.8
	c-0.1-1.8,0.1-3.7,0.6-5.5h-2.2c-0.3,0-0.5-0.1-0.7-0.3s-0.3-0.4-0.3-0.7v-3.2c0-0.3,0.1-0.5,0.3-0.7c0.2-0.2,0.4-0.3,0.7-0.3h10.3
	C41.8,41,44.3,41.7,46,43.2z"/>
<path class="st1" d="M52.9,53.1c-0.2-0.2-0.3-0.4-0.3-0.7V41.9c0-0.3,0.1-0.5,0.3-0.7s0.4-0.3,0.7-0.3h4.6c0.5,0,0.9,0.4,0.9,0.8
	v0.1v10.5c0,0.2-0.1,0.5-0.3,0.6c-0.2,0.2-0.4,0.3-0.7,0.3h-4.6C53.3,53.4,53.1,53.3,52.9,53.1z"/>
<path class="st1" d="M62.9,61.8c-0.2-0.2-0.3-0.4-0.3-0.6V58c0-0.3,0.1-0.5,0.3-0.7s0.4-0.3,0.6-0.3h9.3v-6.8c0-2.8-1.4-4.2-4.2-4.2
	H64c-0.3,0-0.5-0.1-0.7-0.3S63,45.3,63,45v-3.2c0-0.3,0.1-0.5,0.3-0.7s0.4-0.3,0.6-0.3h4.9c3.5,0,6.1,0.7,7.8,2.2
	c1.8,1.5,2.6,3.8,2.6,7.1v6.8h1.3c0.5,0,0.9,0.4,0.9,0.8v0.1V61c0,0.2-0.1,0.5-0.3,0.6c-0.2,0.2-0.4,0.3-0.7,0.3H63.6
	C63.3,62.1,63.1,62,62.9,61.8z"/>
<path class="st1" d="M98.5,61.9c-0.2-0.2-0.3-0.4-0.3-0.7v-11c0-2.8-1.4-4.2-4.2-4.2h-8.4c-0.3,0-0.5-0.1-0.7-0.3s-0.3-0.4-0.3-0.7
	v-3.2c0-0.3,0.1-0.5,0.3-0.7c0.2-0.2,0.4-0.3,0.7-0.3h8.6c3.4,0,6,0.8,7.7,2.3s2.6,3.8,2.6,7V61c0,0.3-0.1,0.5-0.3,0.7
	c-0.2,0.2-0.4,0.3-0.7,0.3h-4.4C99,62.1,98.7,62,98.5,61.9z M85,61.9c-0.2-0.2-0.3-0.4-0.3-0.7V50.4c0-0.3,0.1-0.5,0.3-0.7
	c0.2-0.2,0.4-0.3,0.7-0.3H90c0.5,0,0.9,0.4,0.9,0.8v0.1v10.8c0,0.2-0.1,0.5-0.3,0.6c-0.2,0.2-0.4,0.3-0.7,0.3h-4.4
	C85.4,62.1,85.2,62,85,61.9z"/>
<path class="st1" d="M121.1,46h-5.9c-0.5,0-0.9-0.4-0.9-0.9v-3.2c0-0.3,0.1-0.5,0.3-0.7c0.2-0.2,0.4-0.3,0.6-0.3h6.1
	c3.5,0,6,0.7,7.7,2.1c1.7,1.4,2.5,3.7,2.5,6.9v15.8c0,0.5-0.4,0.9-0.8,0.9h-0.1h-4.4c-0.3,0-0.5-0.1-0.7-0.3
	c-0.2-0.2-0.3-0.4-0.3-0.7V50.2C125.3,47.4,123.9,46,121.1,46z"/>
<path class="st1" d="M138,60.1c-1.8-1.8-2.7-4.3-2.5-6.9V41.9c0-0.3,0.1-0.5,0.3-0.7s0.4-0.3,0.7-0.3h9.4c3.5,0,6.1,0.8,7.6,2.3
	c1.6,1.5,2.4,3.7,2.6,6.7c0,0.2,0,0.8,0,1.7s0,1.5,0,1.8c0,2.5-0.9,4.9-2.6,6.8c-1.6,1.5-4.2,2.3-7.9,2.3
	C142.2,62.5,139.7,61.7,138,60.1z M149,56.3c0.7-0.8,1.1-1.9,1.1-3.1c0-0.2,0-0.8,0-1.6s0-1.3,0-1.6c0-1.1-0.4-2.2-1.1-3.1
	c-0.9-0.7-2.1-1.1-3.3-1h-4.5V53c-0.1,1.1,0.3,2.3,1.1,3.1c0.9,0.7,2,1.1,3.2,1C146.8,57.3,148,57,149,56.3z"/>
<path class="st1" d="M178.1,43.2c1.6,1.5,2.4,3.8,2.4,6.8v11.2c0,0.2-0.1,0.5-0.3,0.6c-0.2,0.2-0.4,0.3-0.7,0.3h-10.1
	c-0.5,0-0.9-0.4-0.9-0.9V58c0-0.3,0.1-0.5,0.3-0.7s0.4-0.3,0.6-0.3h4.8v-6.8c0.1-1.1-0.3-2.1-0.9-3c-0.6-0.7-1.5-1.1-2.4-1.1H168
	L164.9,61c0,0.3-0.1,0.5-0.3,0.7s-0.4,0.3-0.7,0.3h-4.3c-0.3,0-0.5-0.1-0.7-0.3s-0.3-0.4-0.2-0.7l3.6-14.9h-2.4
	c-0.3,0-0.5-0.1-0.7-0.3s-0.3-0.4-0.3-0.7v-3.4c0-0.3,0.1-0.5,0.3-0.7s0.4-0.3,0.6-0.3h11.9C174.1,40.9,176.4,41.7,178.1,43.2z"/>
<path class="st1" d="M198.3,43.3c1.4,1.5,2.1,3.9,2.1,7c0.1,2.8-0.9,5.6-2.8,7.7c-1.9,2-4.3,3.5-7,4.2l-1.5,0.4
	c-0.3,0-0.5-0.1-0.7-0.3s-0.3-0.5-0.3-0.7v-3.7c0-0.3,0.1-0.5,0.3-0.7s0.4-0.4,0.7-0.5l1.2-0.5c1.1-0.4,2-1.1,2.7-2
	c0.7-1.1,1.1-2.4,1-3.8c0.1-1.1-0.2-2.3-0.8-3.3c-0.8-0.7-1.9-1.1-3-0.9h-1h-5c-0.5,0-0.9-0.4-0.9-0.8v-0.1v-8.5
	c0-0.3,0.1-0.5,0.3-0.7s0.4-0.3,0.6-0.3h4c0.5,0,0.9,0.4,0.9,0.8v0.1V41h2.3C194.6,41,196.9,41.8,198.3,43.3z"/>
</svg>
